<?xml version="1.0" encoding="utf-8"?>
<!-- Generator: Adobe Illustrator 18.1.1, SVG Export Plug-In . SVG Version: 6.00 Build 0)  -->
<svg version="1.1" id="Layer_1" xmlns="http://www.w3.org/2000/svg" xmlns:xlink="http://www.w3.org/1999/xlink" x="0px" y="0px"
	 viewBox="0 0 1171.1 522" enable-background="new 0 0 1171.1 522" xml:space="preserve">
<g>
	<defs>
		<rect id="SVGID_3_" x="1.1" y="-285.6" width="1280" height="800"/>
	</defs>
	<clipPath id="SVGID_2_">
		<use xlink:href="#SVGID_3_"  overflow="visible"/>
	</clipPath>
	<g clip-path="url(#SVGID_2_)">
		<path fill="#5E3747" d="M70.5,415.3c-3.5,0-6.3,2.8-6.3,6.3v123.5c2.1-0.6,4.2-1.3,6.3-2V415.3z"/>
		<path fill="#824B61" d="M70.5,415.3v127.8c2.1-0.7,4.2-1.4,6.3-2.1V421.6C76.7,418.1,73.9,415.3,70.5,415.3z"/>
	</g>
	<g clip-path="url(#SVGID_2_)">
		<path fill="#5E3747" d="M105.2,414.7c-2.6,0-4.8,2.1-4.8,4.8v93.7c1.6-0.5,3.2-1,4.8-1.5V414.7z"/>
		<path fill="#824B61" d="M105.2,414.7v97c1.6-0.5,3.2-1.1,4.8-1.6v-90.6C110,416.8,107.9,414.7,105.2,414.7z"/>
		<path fill="#854D63" d="M100.5,513.1v376.4c0,2.6,2.1,4.8,4.8,4.8V511.6C103.6,512.1,102,512.6,100.5,513.1z"/>
		<path fill="#C5718E" d="M105.2,894.3c2.6,0,4.8-2.1,4.8-4.8V510c-1.6,0.6-3.2,1.1-4.8,1.6V894.3z"/>
	</g>
	<g clip-path="url(#SVGID_2_)">
		<g>
			<path fill="#5E3747" d="M1150.4,435.5c1.8,0,3.3,1.5,3.3,3.3v65.1c-1.1-0.3-2.2-0.7-3.3-1.1V435.5z"/>
			<path fill="#824B61" d="M1150.4,435.5v67.3c-1.1-0.4-2.2-0.7-3.3-1.1v-62.9C1147.1,437,1148.6,435.5,1150.4,435.5z"/>
			<path fill="#854D63" d="M1153.7,503.8v261.3c0,1.8-1.5,3.3-3.3,3.3V502.8C1151.5,503.2,1152.6,503.5,1153.7,503.8z"/>
			<path fill="#C5718E" d="M1150.4,768.5c-1.8,0-3.3-1.5-3.3-3.3V501.7c1.1,0.4,2.2,0.8,3.3,1.1V768.5z"/>
		</g>
		<g>
			<path fill="#5E3747" d="M1134.6,435.1c1.4,0,2.5,1.1,2.5,2.5V487c-0.8-0.3-1.7-0.5-2.5-0.8V435.1z"/>
			<path fill="#824B61" d="M1134.6,435.1v51.1c-0.8-0.3-1.7-0.6-2.5-0.8v-47.7C1132.1,436.2,1133.2,435.1,1134.6,435.1z"/>
			<path fill="#854D63" d="M1137.1,487v198.2c0,1.4-1.1,2.5-2.5,2.5V486.2C1135.5,486.5,1136.3,486.7,1137.1,487z"/>
			<path fill="#C5718E" d="M1134.6,687.7c-1.4,0-2.5-1.1-2.5-2.5V485.3c0.8,0.3,1.7,0.6,2.5,0.8V687.7z"/>
		</g>
	</g>
	<g clip-path="url(#SVGID_2_)">
		<g>
			<path fill="#5E3747" d="M1068.4,405.5c-1.8,0-3.3,1.5-3.3,3.3v65.1c1.1-0.3,2.2-0.7,3.3-1.1V405.5z"/>
			<path fill="#824B61" d="M1068.4,405.5v67.3c1.1-0.4,2.2-0.7,3.3-1.1v-62.9C1071.8,407,1070.3,405.5,1068.4,405.5z"/>
			<path fill="#854D63" d="M1065.1,473.9v261.3c0,1.8,1.5,3.3,3.3,3.3V472.8C1067.3,473.2,1066.2,473.5,1065.1,473.9z"/>
			<path fill="#C5718E" d="M1068.4,738.5c1.8,0,3.3-1.5,3.3-3.3V471.7c-1.1,0.4-2.2,0.8-3.3,1.1V738.5z"/>
		</g>
		<g>
			<path fill="#5E3747" d="M1084.2,405.2c-1.4,0-2.5,1.1-2.5,2.5V457c0.8-0.3,1.7-0.5,2.5-0.8V405.2z"/>
			<path fill="#824B61" d="M1084.2,405.2v51.1c0.8-0.3,1.7-0.6,2.5-0.9v-47.7C1086.7,406.3,1085.6,405.2,1084.2,405.2z"/>
			<path fill="#854D63" d="M1081.7,457v198.2c0,1.4,1.1,2.5,2.5,2.5V456.2C1083.4,456.5,1082.6,456.8,1081.7,457z"/>
			<path fill="#C5718E" d="M1084.2,657.7c1.4,0,2.5-1.1,2.5-2.5V455.4c-0.8,0.3-1.7,0.6-2.5,0.9V657.7z"/>
		</g>
	</g>
	<g clip-path="url(#SVGID_2_)">
		<g>
			<path fill="#5E3747" d="M840,466.7c-1.9,0-3.5,1.5-3.5,3.4V538c1.1-0.3,2.3-0.7,3.5-1.1V466.7z"/>
			<path fill="#824B61" d="M840,466.7v70.2c1.1-0.4,2.3-0.8,3.4-1.2v-65.5C843.5,468.3,841.9,466.7,840,466.7z"/>
		</g>
		<g>
			<path fill="#5E3747" d="M856.5,466.4c-1.4,0-2.6,1.2-2.6,2.6v51.4c0.9-0.3,1.7-0.5,2.6-0.8V466.4z"/>
			<path fill="#824B61" d="M856.5,466.4v53.2c0.9-0.3,1.7-0.6,2.6-0.9V469C859.1,467.5,857.9,466.4,856.5,466.4z"/>
			<path fill="#854D63" d="M853.9,520.4V727c0,1.4,1.2,2.6,2.6,2.6v-210C855.6,519.9,854.7,520.2,853.9,520.4z"/>
			<path fill="#C5718E" d="M856.5,729.6c1.4,0,2.6-1.2,2.6-2.6V518.7c-0.9,0.3-1.8,0.6-2.6,0.9V729.6z"/>
		</g>
	</g>
	<g clip-path="url(#SVGID_2_)">
		<g>
			<path fill="#5E3747" d="M790.2,423.8c-1,0-1.8,1.6-1.8,3.6v70.6c0.6-0.4,1.2-0.7,1.8-1.1V423.8z"/>
			<path fill="#824B61" d="M790.2,423.8v73.1c0.6-0.4,1.2-0.8,1.8-1.2v-68.3C792,425.5,791.2,423.8,790.2,423.8z"/>
			<path fill="#854D63" d="M788.4,498.1v283.8c0,2,0.8,3.6,1.8,3.6V496.9C789.6,497.3,789,497.7,788.4,498.1z"/>
			<path fill="#C5718E" d="M790.2,785.4c1,0,1.8-1.6,1.8-3.6V495.7c-0.6,0.4-1.2,0.8-1.8,1.2V785.4z"/>
		</g>
		<g>
			<path fill="#5E3747" d="M798.7,423.5c-0.7,0-1.3,1.2-1.3,2.7v53.6c0.4-0.3,0.9-0.6,1.3-0.9V423.5z"/>
			<path fill="#824B61" d="M798.7,423.5v55.4c0.4-0.3,0.9-0.6,1.3-0.9v-51.8C800,424.7,799.4,423.5,798.7,423.5z"/>
			<path fill="#854D63" d="M797.4,479.8V695c0,1.5,0.6,2.7,1.3,2.7V478.9C798.2,479.2,797.8,479.5,797.4,479.8z"/>
			<path fill="#C5718E" d="M798.7,697.7c0.7,0,1.3-1.2,1.3-2.7V478c-0.5,0.3-0.9,0.6-1.3,0.9V697.7z"/>
		</g>
	</g>
	<g clip-path="url(#SVGID_2_)">
		<g>
			<path fill="#5E3747" d="M638.8,422.2c-1,0-1.8,1.6-1.8,3.6v70.6c0.6-0.4,1.2-0.7,1.8-1.1V422.2z"/>
			<path fill="#824B61" d="M638.8,422.2v73.1c0.6-0.4,1.2-0.8,1.8-1.2v-68.3C640.6,423.8,639.8,422.2,638.8,422.2z"/>
			<path fill="#854D63" d="M637,496.4v283.8c0,2,0.8,3.6,1.8,3.6V495.3C638.2,495.7,637.6,496.1,637,496.4z"/>
			<path fill="#C5718E" d="M638.8,783.8c1,0,1.8-1.6,1.8-3.6V494.1c-0.6,0.4-1.2,0.8-1.8,1.2V783.8z"/>
		</g>
		<g>
			<path fill="#5E3747" d="M647.3,421.8c-0.7,0-1.4,1.2-1.4,2.7v53.6c0.4-0.3,0.9-0.6,1.4-0.9V421.8z"/>
			<path fill="#824B61" d="M647.3,421.8v55.4c0.4-0.3,0.9-0.6,1.3-0.9v-51.8C648.6,423,648,421.8,647.3,421.8z"/>
			<path fill="#854D63" d="M645.9,478.1v215.2c0,1.5,0.6,2.7,1.4,2.7V477.2C646.8,477.5,646.4,477.8,645.9,478.1z"/>
			<path fill="#C5718E" d="M647.3,696.1c0.7,0,1.3-1.2,1.3-2.7v-217c-0.5,0.3-0.9,0.6-1.3,0.9V696.1z"/>
		</g>
	</g>
	<g clip-path="url(#SVGID_2_)">
		<g>
			<path fill="#5E3747" d="M506.6,410c-0.7,0-1.3,1.5-1.3,3.5v68c0.4-0.4,0.9-0.7,1.3-1.1V410z"/>
			<path fill="#824B61" d="M506.6,410v70.4c0.4-0.4,0.9-0.8,1.3-1.2v-65.7C507.9,411.5,507.3,410,506.6,410z"/>
			<path fill="#854D63" d="M505.2,481.4v273.1c0,1.9,0.6,3.5,1.3,3.5V480.3C506.1,480.7,505.7,481.1,505.2,481.4z"/>
			<path fill="#C5718E" d="M506.6,758c0.7,0,1.3-1.5,1.3-3.5V479.2c-0.4,0.4-0.9,0.8-1.3,1.2V758z"/>
		</g>
		<g>
			<path fill="#5E3747" d="M512.9,409.6c-0.6,0-1,1.2-1,2.6v51.6c0.3-0.3,0.7-0.5,1-0.8V409.6z"/>
			<path fill="#824B61" d="M512.9,409.6V463c0.3-0.3,0.7-0.6,1-0.9v-49.9C513.9,410.8,513.5,409.6,512.9,409.6z"/>
			<path fill="#854D63" d="M511.9,463.8V671c0,1.4,0.5,2.6,1,2.6V463C512.6,463.3,512.3,463.5,511.9,463.8z"/>
			<path fill="#C5718E" d="M512.9,673.6c0.6,0,1-1.2,1-2.6V462.1c-0.3,0.3-0.7,0.6-1,0.9V673.6z"/>
		</g>
	</g>
	<g clip-path="url(#SVGID_2_)">
		<g>
			<path fill="#5E3747" d="M425.9,385.5c-0.7,0-1.3,1.5-1.3,3.5v68c0.4-0.4,0.9-0.7,1.3-1.1V385.5z"/>
			<path fill="#824B61" d="M425.9,385.5v70.4c0.4-0.4,0.9-0.8,1.3-1.2v-65.7C427.2,387,426.7,385.5,425.9,385.5z"/>
			<path fill="#854D63" d="M424.6,457v273.1c0,1.9,0.6,3.5,1.3,3.5V455.9C425.5,456.2,425,456.6,424.6,457z"/>
			<path fill="#C5718E" d="M425.9,733.6c0.7,0,1.3-1.5,1.3-3.5V454.7c-0.4,0.4-0.9,0.8-1.3,1.2V733.6z"/>
		</g>
		<g>
			<path fill="#5E3747" d="M432.3,385.1c-0.6,0-1,1.2-1,2.6v51.6c0.3-0.3,0.7-0.5,1-0.8V385.1z"/>
			<path fill="#824B61" d="M432.3,385.1v53.4c0.3-0.3,0.7-0.6,1-0.9v-49.9C433.3,386.3,432.8,385.1,432.3,385.1z"/>
			<path fill="#854D63" d="M431.3,439.3v207.2c0,1.4,0.5,2.6,1,2.6V438.5C431.9,438.8,431.6,439.1,431.3,439.3z"/>
			<path fill="#C5718E" d="M432.3,649.1c0.6,0,1-1.2,1-2.6V437.6c-0.3,0.3-0.7,0.6-1,0.9V649.1z"/>
		</g>
	</g>
	<g clip-path="url(#SVGID_2_)">
		<g>
			<path fill="#5E3747" d="M480.8,378.2c-0.6,0-1,1.5-1,3.3v65.6c0.3-0.3,0.7-0.7,1-1.1V378.2z"/>
			<path fill="#824B61" d="M480.8,378.2v67.9c0.3-0.4,0.7-0.7,1-1.1v-63.4C481.9,379.7,481.4,378.2,480.8,378.2z"/>
			<path fill="#854D63" d="M479.8,447.2v263.6c0,1.8,0.5,3.3,1,3.3v-268C480.5,446.5,480.2,446.8,479.8,447.2z"/>
			<path fill="#C5718E" d="M480.8,714.1c0.6,0,1-1.5,1-3.3V445c-0.3,0.4-0.7,0.8-1,1.1V714.1z"/>
		</g>
		<g>
			<path fill="#5E3747" d="M485.7,377.8c-0.4,0-0.8,1.1-0.8,2.5v49.8c0.3-0.3,0.5-0.5,0.8-0.8V377.8z"/>
			<path fill="#824B61" d="M485.7,377.8v51.5c0.3-0.3,0.5-0.6,0.8-0.9v-48.1C486.5,379,486.1,377.8,485.7,377.8z"/>
			<path fill="#854D63" d="M484.9,430.2v199.9c0,1.4,0.3,2.5,0.8,2.5V429.3C485.4,429.6,485.2,429.9,484.9,430.2z"/>
			<path fill="#C5718E" d="M485.7,632.6c0.4,0,0.8-1.1,0.8-2.5V428.5c-0.3,0.3-0.5,0.6-0.8,0.9V632.6z"/>
		</g>
	</g>
	<g clip-path="url(#SVGID_2_)">
		<g>
			<path fill="#5E3747" d="M570.8,388.8c-0.6,0-1,1.5-1,3.3v65.6c0.3-0.3,0.7-0.7,1-1.1V388.8z"/>
			<path fill="#824B61" d="M570.8,388.8v67.9c0.3-0.4,0.7-0.7,1-1.1v-63.4C571.9,390.3,571.4,388.8,570.8,388.8z"/>
			<path fill="#854D63" d="M569.8,457.7v263.6c0,1.8,0.5,3.3,1,3.3v-268C570.5,457.1,570.2,457.4,569.8,457.7z"/>
			<path fill="#C5718E" d="M570.8,724.6c0.6,0,1-1.5,1-3.3V455.6c-0.3,0.4-0.7,0.8-1,1.1V724.6z"/>
		</g>
		<g>
			<path fill="#5E3747" d="M575.7,388.4c-0.4,0-0.8,1.1-0.8,2.5v49.8c0.3-0.3,0.5-0.5,0.8-0.8V388.4z"/>
			<path fill="#824B61" d="M575.7,388.4v51.5c0.3-0.3,0.5-0.6,0.8-0.9V391C576.5,389.6,576.1,388.4,575.7,388.4z"/>
			<path fill="#854D63" d="M574.9,440.7v199.9c0,1.4,0.3,2.5,0.8,2.5V439.9C575.4,440.2,575.2,440.5,574.9,440.7z"/>
			<path fill="#C5718E" d="M575.7,643.2c0.4,0,0.8-1.1,0.8-2.5V439.1c-0.3,0.3-0.5,0.6-0.8,0.9V643.2z"/>
		</g>
	</g>
	<g clip-path="url(#SVGID_2_)">
		<g>
			<path fill="#5E3747" d="M700.6,383.5c-0.6,0-1,1.5-1,3.3v65.6c0.3-0.3,0.7-0.7,1-1.1V383.5z"/>
			<path fill="#824B61" d="M700.6,383.5v67.9c0.3-0.4,0.7-0.7,1-1.1v-63.4C701.6,385,701.1,383.5,700.6,383.5z"/>
			<path fill="#854D63" d="M699.6,452.5v263.6c0,1.8,0.5,3.3,1,3.3v-268C700.2,451.8,699.9,452.2,699.6,452.5z"/>
			<path fill="#C5718E" d="M700.6,719.4c0.6,0,1-1.5,1-3.3V450.3c-0.3,0.4-0.7,0.8-1,1.1V719.4z"/>
		</g>
		<g>
			<path fill="#5E3747" d="M705.4,383.2c-0.4,0-0.8,1.1-0.8,2.5v49.8c0.3-0.3,0.5-0.5,0.8-0.8V383.2z"/>
			<path fill="#824B61" d="M705.4,383.2v51.5c0.3-0.3,0.5-0.6,0.8-0.9v-48.1C706.2,384.3,705.9,383.2,705.4,383.2z"/>
			<path fill="#854D63" d="M704.7,435.5v199.9c0,1.4,0.3,2.5,0.8,2.5V434.7C705.2,435,704.9,435.2,704.7,435.5z"/>
			<path fill="#C5718E" d="M705.4,637.9c0.4,0,0.8-1.1,0.8-2.5V433.8c-0.3,0.3-0.5,0.6-0.8,0.9V637.9z"/>
		</g>
	</g>
	<g clip-path="url(#SVGID_2_)">
		<g>
			<path fill="#5E3747" d="M841.2,369.4c-0.6,0-1,1.5-1,3.3v65.6c0.3-0.3,0.7-0.7,1-1.1V369.4z"/>
			<path fill="#824B61" d="M841.2,369.4v67.9c0.3-0.4,0.7-0.7,1-1.1v-63.4C842.2,370.9,841.7,369.4,841.2,369.4z"/>
			<path fill="#854D63" d="M840.1,438.4V702c0,1.8,0.5,3.3,1,3.3v-268C840.8,437.7,840.5,438.1,840.1,438.4z"/>
			<path fill="#C5718E" d="M841.2,705.3c0.6,0,1-1.5,1-3.3V436.2c-0.3,0.4-0.7,0.8-1,1.1V705.3z"/>
		</g>
		<g>
			<path fill="#5E3747" d="M846,369.1c-0.4,0-0.8,1.1-0.8,2.5v49.8c0.3-0.3,0.5-0.5,0.8-0.8V369.1z"/>
			<path fill="#824B61" d="M846,369.1v51.5c0.3-0.3,0.5-0.6,0.8-0.9v-48.1C846.8,370.2,846.4,369.1,846,369.1z"/>
			<path fill="#854D63" d="M845.2,421.4v199.9c0,1.4,0.3,2.5,0.8,2.5V420.6C845.7,420.9,845.5,421.1,845.2,421.4z"/>
			<path fill="#C5718E" d="M846,623.8c0.4,0,0.8-1.1,0.8-2.5V419.7c-0.3,0.3-0.5,0.6-0.8,0.9V623.8z"/>
		</g>
	</g>
	<g clip-path="url(#SVGID_2_)">
		<g>
			<path fill="#5E3747" d="M770.2,368c-0.3,0-0.5,1.7-0.5,3.7v72.5c0.2-0.4,0.3-0.8,0.5-1.2V368z"/>
			<path fill="#824B61" d="M770.2,368v75c0.2-0.4,0.3-0.8,0.5-1.2v-70.1C770.7,369.7,770.5,368,770.2,368z"/>
			<path fill="#854D63" d="M769.7,444.2v291.3c0,2,0.2,3.7,0.5,3.7V443.1C770.1,443.5,769.9,443.9,769.7,444.2z"/>
			<path fill="#C5718E" d="M770.2,739.3c0.3,0,0.5-1.7,0.5-3.7V441.8c-0.2,0.4-0.3,0.8-0.5,1.2V739.3z"/>
		</g>
		<g>
			<path fill="#5E3747" d="M772.6,367.6c-0.2,0-0.4,1.3-0.4,2.8v55c0.1-0.3,0.3-0.6,0.4-0.9V367.6z"/>
			<path fill="#824B61" d="M772.6,367.6v56.9c0.1-0.3,0.3-0.6,0.4-0.9v-53.2C773,368.9,772.8,367.6,772.6,367.6z"/>
			<path fill="#854D63" d="M772.2,425.4v221c0,1.5,0.2,2.8,0.4,2.8V424.5C772.5,424.9,772.3,425.2,772.2,425.4z"/>
			<path fill="#C5718E" d="M772.6,649.2c0.2,0,0.4-1.3,0.4-2.8V423.6c-0.1,0.3-0.3,0.6-0.4,0.9V649.2z"/>
		</g>
	</g>
	<g clip-path="url(#SVGID_2_)">
		<g>
			<path fill="#5E3747" d="M698.4,359.9c-0.3,0-0.5,1.7-0.5,3.7v72.5c0.2-0.4,0.3-0.8,0.5-1.2V359.9z"/>
			<path fill="#824B61" d="M698.4,359.9v75c0.2-0.4,0.3-0.8,0.5-1.2v-70.1C698.9,361.6,698.7,359.9,698.4,359.9z"/>
			<path fill="#854D63" d="M697.9,436.2v291.3c0,2,0.2,3.7,0.5,3.7V435C698.3,435.4,698.1,435.8,697.9,436.2z"/>
			<path fill="#C5718E" d="M698.4,731.2c0.3,0,0.5-1.7,0.5-3.7V433.7c-0.2,0.4-0.3,0.8-0.5,1.2V731.2z"/>
		</g>
		<g>
			<path fill="#5E3747" d="M700.8,359.5c-0.2,0-0.4,1.3-0.4,2.8v55c0.1-0.3,0.2-0.6,0.4-0.9V359.5z"/>
			<path fill="#824B61" d="M700.8,359.5v56.9c0.1-0.3,0.2-0.6,0.4-0.9v-53.2C701.2,360.8,701,359.5,700.8,359.5z"/>
			<path fill="#854D63" d="M700.4,417.3v221c0,1.5,0.2,2.8,0.4,2.8V416.5C700.7,416.8,700.5,417.1,700.4,417.3z"/>
			<path fill="#C5718E" d="M700.8,641.1c0.2,0,0.4-1.3,0.4-2.8V415.5c-0.1,0.3-0.3,0.6-0.4,0.9V641.1z"/>
		</g>
	</g>
	<g clip-path="url(#SVGID_2_)">
		<g>
			<path fill="#5E3747" d="M646.8,352.6c-0.3,0-0.5,1.7-0.5,3.7v72.5c0.2-0.4,0.3-0.8,0.5-1.2V352.6z"/>
			<path fill="#824B61" d="M646.8,352.6v75c0.2-0.4,0.3-0.8,0.5-1.2v-70.1C647.3,354.2,647.1,352.6,646.8,352.6z"/>
			<path fill="#854D63" d="M646.3,428.8v291.3c0,2,0.2,3.7,0.5,3.7V427.6C646.7,428,646.5,428.4,646.3,428.8z"/>
			<path fill="#C5718E" d="M646.8,723.8c0.3,0,0.5-1.7,0.5-3.7V426.4c-0.2,0.4-0.3,0.9-0.5,1.2V723.8z"/>
		</g>
		<g>
			<path fill="#5E3747" d="M649.2,352.2c-0.2,0-0.4,1.3-0.4,2.8v55c0.1-0.3,0.3-0.6,0.4-0.9V352.2z"/>
			<path fill="#824B61" d="M649.2,352.2v56.9c0.1-0.3,0.3-0.6,0.4-0.9V355C649.6,353.4,649.4,352.2,649.2,352.2z"/>
			<path fill="#854D63" d="M648.8,410v221c0,1.5,0.2,2.8,0.4,2.8V409.1C649.1,409.4,649,409.7,648.8,410z"/>
			<path fill="#C5718E" d="M649.2,633.8c0.2,0,0.4-1.3,0.4-2.8V408.2c-0.1,0.3-0.3,0.6-0.4,0.9V633.8z"/>
		</g>
	</g>
	<g clip-path="url(#SVGID_2_)">
		<g>
			<path fill="#5E3747" d="M572,325.4c-0.3,0-0.5,1.7-0.5,3.7v72.5c0.2-0.4,0.3-0.8,0.5-1.2V325.4z"/>
			<path fill="#824B61" d="M572,325.4v75c0.2-0.4,0.3-0.8,0.5-1.2V329C572.5,327,572.3,325.4,572,325.4z"/>
			<path fill="#854D63" d="M571.5,401.6v291.3c0,2,0.2,3.7,0.5,3.7V400.4C571.9,400.8,571.7,401.2,571.5,401.6z"/>
			<path fill="#C5718E" d="M572,696.6c0.3,0,0.5-1.7,0.5-3.7V399.2c-0.2,0.4-0.3,0.8-0.5,1.2V696.6z"/>
		</g>
		<g>
			<path fill="#5E3747" d="M574.4,325c-0.2,0-0.4,1.3-0.4,2.8v55c0.1-0.3,0.2-0.6,0.4-0.9V325z"/>
			<path fill="#824B61" d="M574.4,325v56.9c0.1-0.3,0.3-0.6,0.4-0.9v-53.2C574.8,326.2,574.6,325,574.4,325z"/>
			<path fill="#854D63" d="M574,382.8v221c0,1.5,0.2,2.8,0.4,2.8V381.9C574.3,382.2,574.1,382.5,574,382.8z"/>
			<path fill="#C5718E" d="M574.4,606.5c0.2,0,0.4-1.3,0.4-2.8V380.9c-0.1,0.3-0.3,0.6-0.4,0.9V606.5z"/>
		</g>
	</g>
	<g clip-path="url(#SVGID_2_)">
		<g enable-background="new    ">
			<g enable-background="new    ">
				<defs>
					<path id="SVGID_5_" enable-background="new    " d="M815.8,368.7l-3.5,11.8c-6.1,0.3-13,0.7-21.1,1.2
						c-9.8,0.6-19.6,1.1-29.2,1.3c-34.4,0.7-67.3-1.4-98.1-6.4c-31.6-5.1-59-16.9-85.4-27.7c-45.4-18.6-68.1-41.9-69-42.7l3.5-11.8
						c0.9,0.8,23.5,24.1,69,42.7c26.5,10.8,53.9,22.6,85.4,27.7c30.8,5,63.6,7.1,98.1,6.4c9.6-0.2,19.3-0.6,29.2-1.3
						C802.8,369.4,809.8,369,815.8,368.7z"/>
				</defs>
				<clipPath id="SVGID_4_">
					<use xlink:href="#SVGID_5_"  overflow="visible"/>
				</clipPath>
				<path clip-path="url(#SVGID_4_)" fill="#824B61" d="M794.8,362c-9.8,0.6-19.6,1.1-29.2,1.3c-34.4,0.7-67.3-1.4-98.1-6.4
					c-31.6-5.1-59-16.9-85.4-27.7c-45.4-18.6-68.1-41.9-69-42.7l3.6,3.4c0.9,0.8,19.5,23.7,61,45.2c28.5,14.8,54.8,25.4,86.3,30.5
					c30.8,5,63.6,10.2,98.1,9.5c9.6-0.2,19.3-0.6,29.2-1.3c8.1-0.5,15-0.9,21.1-1.2l3.5-11.8C809.8,361.1,802.8,361.5,794.8,362z"/>
			</g>
			<g enable-background="new    ">
				<defs>
					<path id="SVGID_7_" enable-background="new    " d="M862.8,366.4c-1,3.4-2,6.7-3,10.1c-0.2,0.6-0.3,1.2-0.5,1.8
						c-0.2,0.5-0.4,1-0.7,1.5c-1.4,2.1-3.4,5.2-41.9,11c-25,3.8-57,7.3-90,9.9c-24,1.9-58.2,4.1-96.3,4.9
						c-43.6,0.9-92.3,0-136.6-5.3c-24.9-2.9-41.5-3.7-52.2-3.4c-5.9,0.1-10,0.5-12.6,1l3.5-11.8c2.7-0.5,6.7-0.9,12.6-1
						c10.7-0.2,27.3,0.5,52.2,3.4c44.3,5.2,93,6.2,136.6,5.3c38.1-0.8,72.4-3,96.3-4.9c33-2.6,65-6.1,90-9.9
						c38.5-5.8,40.5-8.9,41.9-11C862.4,367.4,862.7,366.9,862.8,366.4z"/>
				</defs>
				<clipPath id="SVGID_6_">
					<use xlink:href="#SVGID_7_"  overflow="visible"/>
				</clipPath>
				<g clip-path="url(#SVGID_6_)">
					<path fill="#91465F" d="M862.6,366.9l-3.3,5.7c-0.2,0.5-0.4,1-0.7,1.5c-0.3,0.5-0.7,1-1.4,1.6l3.5-11.8
						c0.8-0.6,1.1-1.1,1.4-1.6"/>
					<path fill="#824B61" d="M860.7,363.8l-3.5,11.8c-2.7,2-10.7,4.9-40.5,9.4c-25,3.8-57,7.3-90,9.9c-24,1.9-58.2,4.1-96.3,4.9
						c-43.6,0.9-92.3,0-136.6-5.3c-24.9-2.9-41.5-3.7-52.2-3.4c-5.9,0.1-10,0.5-12.6,1l3.5-11.8c2.7-0.5,6.7-0.9,12.6-1
						c10.7-0.2,27.3,0.5,52.2,3.4c44.3,5.2,93,6.2,136.6,5.3c38.1-0.8,72.4-3,96.3-4.9c33-2.6,65-6.1,90-9.9
						C850,368.7,858,365.8,860.7,363.8"/>
				</g>
			</g>
			<g enable-background="new    ">
				<defs>
					<path id="SVGID_9_" enable-background="new    " d="M414.9,394.5c1.2-4,2.3-7.9,3.5-11.8c-0.6,2.1-0.2,4.4,1.3,6.4
						c1.5,2.2,6.2,8.8,44.2,17.3c18.9,4.3,52.1,10.3,103,14.8c45.2,4,109,7.2,191.1,5.5c54.1-1.1,116.1-4.4,185.9-10.9
						c39.1-3.7,75-5.9,106.2-6.5c18.3-0.4,35-0.2,49.8,0.5c40.7,1.9,53.9,7.6,56,10l-3.5,11.8c-2.1-2.4-15.3-8-56-10
						c-14.8-0.7-31.4-0.9-49.8-0.5c-31.2,0.6-67,2.8-106.2,6.5c-69.8,6.6-131.8,9.8-185.8,10.9c-82,1.7-145.9-1.5-191.1-5.5
						c-51-4.5-84.2-10.5-103-14.8c-38-8.6-42.7-15.2-44.2-17.3C414.7,398.9,414.3,396.6,414.9,394.5z"/>
				</defs>
				<clipPath id="SVGID_8_">
					<use xlink:href="#SVGID_9_"  overflow="visible"/>
				</clipPath>
				<g clip-path="url(#SVGID_8_)">
					<path fill="#824B61" d="M1155.8,416.6l-3.5,11.8c-2.1-2.4-15.3-8-56-10c-14.8-0.7-31.4-0.9-49.8-0.5
						c-31.2,0.6-67,2.8-106.2,6.5c-69.8,6.6-131.8,9.8-185.8,10.9c-82,1.7-145.9-1.5-191.1-5.5c-51-4.5-84.2-10.5-103-14.8
						c-38-8.6-42.7-15.2-44.2-17.3c-1.4-2.1-1.9-4.4-1.3-6.4l3.5-11.8c-0.6,2.1-0.2,4.4,1.3,6.4c1.5,2.2,6.2,8.8,44.2,17.3
						c18.9,4.3,52.1,10.3,103,14.8c45.2,4,109,7.2,191.1,5.5c54.1-1.1,116.1-4.4,185.9-10.9c39.1-3.7,75-5.9,106.2-6.5
						c18.3-0.4,35-0.2,49.8,0.5C1140.5,408.6,1153.7,414.3,1155.8,416.6"/>
				</g>
			</g>
			<g enable-background="new    ">
				<defs>
					<path id="SVGID_11_" enable-background="new    " d="M1166.8,422.7c-1.2,3.9-2.3,7.9-3.5,11.8c-0.3,0.9-0.7,1.8-1.2,2.6
						c-6.3,10.1-34.4,19.3-83.5,27.5c-54.3,9-129.1,15.6-216.2,18.9c-18.6,0.7-38.8,1.3-60.7,1.8c-166.9,3.4-430.7-2.2-810.1-39.9
						l3.5-11.8c379.5,37.7,643.2,43.4,810.1,39.9c21.9-0.5,42.1-1.1,60.7-1.8c87.2-3.3,161.9-9.9,216.2-18.9
						c49.1-8.2,77.2-17.4,83.5-27.5C1166.1,424.5,1166.5,423.6,1166.8,422.7z"/>
				</defs>
				<clipPath id="SVGID_10_">
					<use xlink:href="#SVGID_11_"  overflow="visible"/>
				</clipPath>
				<g clip-path="url(#SVGID_10_)">
					<path fill="#91465F" d="M1166.8,422.7l-3.5,11.8c-0.3,0.9-0.7,1.8-1.2,2.6c-1,1.6-2.5,3.1-4.5,4.7l3.5-11.8
						c2-1.5,3.6-3.1,4.5-4.7C1166.1,424.5,1166.5,423.6,1166.8,422.7"/>
					<path fill="#824B61" d="M1161,430l-3.5,11.8c-11,8.3-37.5,15.9-79,22.8c-54.3,9-129.1,15.6-216.2,18.9
						c-18.6,0.7-38.8,1.3-60.7,1.8c-166.9,3.4-430.7-2.2-810.1-39.9l3.5-11.8c379.5,37.7,643.2,43.4,810.1,39.9
						c21.9-0.5,42.1-1.1,60.7-1.8c87.2-3.3,161.9-9.9,216.2-18.9C1123.5,446,1150,438.3,1161,430"/>
				</g>
			</g>
			<path fill="#C5718E" d="M1165.3,414.5c-3.3-4.6-10.4-7.9-22.6-10.5c-11.1-2.3-25.9-3.9-44.1-4.8c-14.7-0.7-31.2-0.8-49.3-0.4
				c-31.5,0.6-67.7,2.9-107.1,6.6c-69.5,6.5-131.2,9.8-185,10.9c-80.8,1.7-143.7-1.5-188.3-5.4c-50.3-4.4-83.1-10.3-101.7-14.4
				c-20.6-4.6-30.3-8.4-34.7-10.7c2.7-0.5,6.7-0.9,12.6-1c10.7-0.2,27.3,0.5,52.2,3.4c44.3,5.2,93,6.2,136.6,5.3
				c38.1-0.8,72.4-3,96.3-4.9c33-2.6,65-6.1,90-9.9c38.5-5.8,40.5-8.9,41.9-11c1.2-1.9,1.2-4.2-0.1-6.1c-2-3-5.4-4.2-21-4.3
				c-2.2,0-4.6,0-7.2,0.1c-10.4,0.2-24,0.9-40.4,1.9c-9.8,0.6-19.2,1-28.4,1.2c-84.3,1.7-143.9-14.4-180.2-29.2
				c-43.5-17.7-63.9-37.1-64.1-37.3l-7.8-7.6c0.9,0.8,23.6,31.9,69,50.5c26.5,10.8,53.9,22.6,85.4,27.7c30.8,5,63.6,7.1,98.1,6.4
				c9.6-0.2,19.3-0.6,29.2-1.3c8.1-0.5,15-0.9,21.1-1.2c-22.4,3.3-53.9,7-92.3,9.9c-22.6,1.7-54.6,3.7-90.4,4.4
				c-43,0.9-91.3,0-135-5.2c-25-3-41.9-3.8-53.4-3.6c-21.5,0.4-24.3,4.7-25.5,6.6c-1.6,2.5-1.4,5.5,0.4,8.2
				c1.5,2.2,6.2,8.8,44.2,17.3c18.9,4.3,52.1,10.3,103,14.8c45.2,4,109,7.2,191.1,5.5c54.1-1.1,116.1-4.4,185.9-10.9
				c39.1-3.7,75-5.9,106.2-6.5c18.3-0.4,35-0.2,49.8,0.5c40.7,1.9,53.9,7.6,56,10c-0.6,0.9-3.4,4.2-16.6,8.9
				c-12.5,4.4-30.5,6.4-53,10.4c-36.5,6.4-97.8,6.9-207.2,11.4c-7,0.3-14.3,0.5-21.8,0.7c-165.7,3.4-462.4-24.8-878-66.1l15.9,48.6
				c379.5,37.7,643.2,43.4,810.1,39.9c21.9-0.5,42.1-1.1,60.7-1.8c87.2-3.3,161.9-9.9,216.2-18.9c49.1-8.2,77.2-17.4,83.5-27.5
				C1167.8,421.8,1167.7,417.9,1165.3,414.5z"/>
		</g>
	</g>
	<g clip-path="url(#SVGID_2_)">
		<path fill="#FFFFFF" d="M512.9,286.8c0,0,0.2,0.2,0.5,0.6c0.3,0.4,0.8,1,1.4,1.6c0.3,0.3,0.6,0.7,0.9,1.1c0.3,0.4,0.7,0.8,1.1,1.2
			c0.8,0.8,1.6,1.6,2.4,2.5c0.4,0.4,0.8,0.9,1.3,1.2c0.4,0.4,0.9,0.8,1.3,1.1c0.8,0.7,1.6,1.4,2.2,2c1.3,1.2,2.2,2,2.2,2l0,0
			c0,0-0.9-0.8-2.2-2c-0.7-0.6-1.4-1.3-2.2-2c-0.4-0.4-0.8-0.8-1.3-1.1c-0.4-0.4-0.8-0.8-1.2-1.2c-0.8-0.8-1.6-1.7-2.4-2.5
			c-0.4-0.4-0.8-0.8-1.1-1.2c-0.3-0.4-0.6-0.7-0.9-1.1c-0.6-0.7-1.1-1.2-1.4-1.6C513.1,287,512.9,286.8,512.9,286.8z"/>
		<path fill="#FFFFFF" d="M536.2,307.9c0,0,1.9,1.3,4.9,3.4c0.7,0.5,1.5,1.1,2.4,1.6c0.9,0.5,1.8,1.1,2.7,1.7
			c0.9,0.6,1.9,1.2,2.9,1.8c0.5,0.3,1,0.6,1.5,0.9c0.5,0.3,1,0.6,1.5,0.9c2.1,1.2,4.1,2.3,6,3.4c1,0.6,1.9,1,2.8,1.5
			c0.9,0.5,1.8,0.9,2.5,1.3c3.2,1.6,5.3,2.7,5.3,2.7l0,0.1c0,0-2.1-1.1-5.3-2.7c-0.8-0.4-1.6-0.8-2.5-1.3c-0.9-0.5-1.9-0.9-2.8-1.5
			c-1.9-1.1-4-2.3-6-3.4c-0.5-0.3-1-0.6-1.5-0.9c-0.5-0.3-1-0.6-1.5-0.9c-1-0.6-2-1.2-2.9-1.8c-0.9-0.6-1.8-1.2-2.7-1.7
			c-0.9-0.5-1.6-1.1-2.4-1.6C538.1,309.2,536.1,307.9,536.2,307.9L536.2,307.9z"/>
		<path fill="#FFFFFF" d="M580.2,332.3c0,0,2.2,0.9,5.5,2.3c0.8,0.3,1.7,0.7,2.6,1.1c0.9,0.4,2,0.7,3,1.1c1,0.4,2.1,0.8,3.2,1.2
			c1.1,0.4,2.2,0.9,3.3,1.2c2.2,0.8,4.5,1.5,6.6,2.3c1,0.4,2.1,0.7,3,1c1,0.3,1.9,0.6,2.7,0.9c3.4,1.1,5.6,1.8,5.6,1.8l0,0.1
			c0,0-2.3-0.7-5.6-1.8c-0.8-0.3-1.8-0.6-2.7-0.9c-1-0.3-2-0.6-3-1c-2.1-0.7-4.3-1.5-6.6-2.3c-1.1-0.4-2.2-0.8-3.3-1.2
			c-1.1-0.4-2.2-0.8-3.2-1.2c-1-0.4-2-0.8-3-1.1c-0.9-0.4-1.8-0.8-2.6-1.1C582.4,333.3,580.2,332.4,580.2,332.3L580.2,332.3z"/>
		<path fill="#FFFFFF" d="M627.9,348.6c0,0,2.3,0.6,5.8,1.4c1.7,0.4,3.7,0.9,5.9,1.4c1.1,0.3,2.2,0.5,3.3,0.8
			c1.1,0.3,2.3,0.6,3.4,0.8c9.3,1.8,18.6,3.7,18.6,3.7l0,0.1c0,0-9.3-1.8-18.6-3.7c-1.2-0.2-2.3-0.5-3.4-0.8
			c-1.1-0.3-2.2-0.5-3.3-0.8c-2.2-0.5-4.2-1-5.9-1.4c-3.4-0.8-5.7-1.4-5.7-1.4L627.9,348.6z"/>
		<path fill="#FFFFFF" d="M677.4,358.7c0,0,2.3,0.3,5.9,0.8c1.8,0.2,3.8,0.5,6,0.8c1.1,0.1,2.2,0.3,3.4,0.4c1.2,0.1,2.3,0.3,3.5,0.4
			c9.4,0.9,18.8,1.9,18.8,1.9l0,0.2c0,0-9.4-0.9-18.8-1.9c-1.2-0.1-2.3-0.3-3.5-0.4c-1.2-0.2-2.3-0.3-3.4-0.5
			c-2.2-0.3-4.3-0.6-6-0.8c-3.5-0.5-5.9-0.8-5.9-0.8L677.4,358.7z"/>
		<path fill="#FFFFFF" d="M727.6,363.9c0,0,2.4,0.1,5.9,0.3c1.8,0.1,3.8,0.2,6.1,0.3c1.1,0.1,2.3,0.1,3.4,0.2c1.2,0,2.3,0.1,3.5,0.2
			c9.5,0.2,18.9,0.4,18.9,0.4l0,0.2c0,0-9.5-0.2-18.9-0.4c-1.2,0-2.4-0.1-3.5-0.2c-1.2-0.1-2.3-0.1-3.4-0.2
			c-2.2-0.1-4.3-0.2-6.1-0.3c-3.5-0.2-5.9-0.3-5.9-0.3L727.6,363.9z"/>
		<path fill="#FFFFFF" d="M778,365.2c0,0,9.5-0.2,18.9-0.4c9.5-0.4,18.9-0.8,18.9-0.8l0,0.3c0,0-9.5,0.4-18.9,0.7
			c-9.5,0.2-18.9,0.3-18.9,0.3L778,365.2z"/>
		<path fill="#FFFFFF" d="M828.4,363.4l0.2,0h0h0c1.6,0.1,3.1,0.3,4.7,0.5c1.6,0.2,3.1,0.5,4.6,0.9c0.8,0.2,1.5,0.4,2.2,0.9
			c0.2,0.1,0.3,0.3,0.4,0.5c0.1,0.2,0.1,0.5,0,0.7c-0.2,0.4-0.6,0.6-0.9,0.8c-0.7,0.4-1.4,0.7-2.2,1c-0.7,0.3-1.5,0.5-2.3,0.7
			c-3,0.8-6.1,1.4-9.2,2c-3.1,0.6-6.2,1.1-9.3,1.6l0-0.3c3.1-0.5,6.2-1,9.3-1.5c3.1-0.6,6.2-1.2,9.2-2c0.8-0.2,1.5-0.4,2.2-0.7
			c0.7-0.3,1.5-0.5,2.1-0.9c0.3-0.2,0.6-0.4,0.8-0.7c0.2-0.3,0-0.6-0.3-0.8c-0.6-0.4-1.4-0.7-2.1-0.9c-1.5-0.4-3-0.6-4.6-0.9
			c-1.5-0.2-3.1-0.4-4.7-0.5h0l-0.2,0L828.4,363.4z"/>
		<polygon fill="#FFFFFF" points="804.3,374.7 766.7,379 766.7,378.7 804.3,374.3 		"/>
		<path fill="#FFFFFF" d="M754.2,380.3c0,0-2.4,0.2-5.9,0.6c-3.5,0.3-8.3,0.7-13,1.1c-9.4,0.8-18.9,1.6-18.9,1.6l0-0.4
			c0,0,9.4-0.8,18.9-1.6c4.7-0.4,9.4-0.8,13-1.1c3.5-0.3,5.9-0.6,5.9-0.6L754.2,380.3z"/>
		<polygon fill="#FFFFFF" points="703.9,384.5 666.1,386.6 666,386.2 703.8,384.1 		"/>
		<polygon fill="#FFFFFF" points="653.4,387.1 615.6,388.1 615.6,387.7 653.4,386.7 		"/>
		<polygon fill="#FFFFFF" points="603,388.3 565.1,388.2 565.1,387.8 603,387.9 		"/>
		<polygon fill="#FFFFFF" points="552.5,387.9 514.6,386.6 514.7,386.2 552.5,387.5 		"/>
		<path fill="#FFFFFF" d="M502,385.9c0,0-2.4-0.2-5.9-0.4c-1.8-0.1-3.8-0.3-6-0.4c-2.2-0.2-4.6-0.4-6.9-0.6
			c-1.2-0.1-2.4-0.2-3.5-0.3c-1.2-0.1-2.3-0.3-3.4-0.4c-1.1-0.1-2.2-0.3-3.2-0.4c-1-0.1-2-0.2-2.8-0.4c-3.5-0.5-5.9-0.9-5.9-0.9
			l0.1-0.4c0,0,2.3,0.4,5.8,0.9c0.9,0.1,1.8,0.2,2.8,0.4c1,0.1,2.1,0.2,3.2,0.4c1.1,0.1,2.2,0.3,3.4,0.4c1.2,0.1,2.3,0.2,3.5,0.3
			c2.4,0.2,4.7,0.4,6.9,0.6c2.2,0.2,4.3,0.3,6,0.4c3.5,0.3,5.9,0.4,5.9,0.4L502,385.9z"/>
		<path fill="#FFFFFF" d="M452,379.7c0,0-0.6,0-1.6-0.1c-1-0.1-2.5-0.1-4.3-0.1c-1.8,0-3.8,0.1-6,0.4c-2.2,0.3-4.5,0.6-6.8,1.3
			c-1.1,0.3-2.2,0.8-3.2,1.4c-0.5,0.3-0.9,0.6-1.2,1.1c-0.3,0.4-0.5,0.9-0.4,1.4c0.2,1,1,1.8,1.8,2.4c0.8,0.6,1.6,1.1,2.4,1.6
			c1.5,0.9,2.9,1.4,3.8,1.8c1,0.4,1.5,0.6,1.5,0.6l-0.2,0.4c0,0-0.6-0.2-1.5-0.6c-1-0.4-2.3-1-3.9-1.9c-0.8-0.4-1.6-0.9-2.4-1.6
			c-0.4-0.3-0.8-0.7-1.2-1.1c-0.3-0.4-0.7-0.9-0.8-1.6c-0.1-0.6,0.1-1.3,0.5-1.8c0.4-0.5,0.9-0.9,1.4-1.2c1-0.6,2.2-1.1,3.3-1.4
			c2.3-0.7,4.6-1.1,6.9-1.3c2.2-0.3,4.3-0.4,6.1-0.4c1.8,0,3.3,0,4.3,0.1c1,0.1,1.6,0.1,1.6,0.1L452,379.7z"/>
		<path fill="#FFFFFF" d="M449.9,395.4c0,0,2.3,0.6,5.7,1.5c0.9,0.2,1.8,0.5,2.8,0.7c1,0.2,2,0.5,3.1,0.7c1.1,0.3,2.2,0.5,3.3,0.8
			c1.1,0.3,2.3,0.5,3.4,0.7c2.3,0.5,4.6,1,6.8,1.4c1.1,0.2,2.1,0.4,3.1,0.6c1,0.2,1.9,0.4,2.8,0.5c3.5,0.7,5.8,1.1,5.8,1.1l-0.1,0.5
			c0,0-2.3-0.4-5.8-1.1c-0.9-0.2-1.8-0.3-2.8-0.5c-1-0.2-2.1-0.4-3.1-0.6c-2.2-0.5-4.5-0.9-6.8-1.4c-1.2-0.3-2.3-0.5-3.5-0.7
			c-1.1-0.3-2.3-0.5-3.3-0.8c-1.1-0.3-2.1-0.5-3.1-0.7c-1-0.2-1.9-0.5-2.8-0.7c-3.4-0.9-5.7-1.5-5.7-1.5L449.9,395.4z"/>
		<polygon fill="#FFFFFF" points="499.3,405.6 536.7,411.4 536.7,411.8 499.2,406.1 		"/>
		<path fill="#FFFFFF" d="M549.2,413.1c0,0,0.6,0.1,1.6,0.2c1,0.1,2.5,0.3,4.2,0.5c3.5,0.4,8.2,1,12.9,1.5
			c9.4,0.9,18.8,1.8,18.8,1.8l0,0.5c0,0-9.4-0.9-18.8-1.8c-4.7-0.6-9.4-1.1-12.9-1.5c-1.8-0.2-3.2-0.4-4.3-0.5
			c-1-0.1-1.6-0.2-1.6-0.2L549.2,413.1z"/>
		<path fill="#FFFFFF" d="M599.4,418.1c0,0,9.4,0.6,18.9,1.2c9.4,0.4,18.9,0.9,18.9,0.9l0,0.5c0,0-9.4-0.4-18.9-0.9
			c-9.4-0.6-18.9-1.2-18.9-1.2L599.4,418.1z"/>
		<polygon fill="#FFFFFF" points="649.7,420.6 687.5,421.3 687.5,421.8 649.7,421.1 		"/>
		<polygon fill="#FFFFFF" points="700.1,421.4 738,421 738,421.6 700.1,421.9 		"/>
		<polygon fill="#FFFFFF" points="750.6,420.8 788.4,419.6 788.4,420.2 750.6,421.3 		"/>
		<polygon fill="#FFFFFF" points="801,419.2 838.8,417.4 838.9,418 801,419.7 		"/>
		<polygon fill="#FFFFFF" points="851.4,416.7 889.2,414.5 889.3,415.1 851.5,417.3 		"/>
		<polygon fill="#FFFFFF" points="901.8,413.6 939.6,411 939.6,411.6 901.9,414.2 		"/>
		<polygon fill="#FFFFFF" points="952.2,410 989.9,407.1 990,407.7 952.2,410.7 		"/>
		<polygon fill="#FFFFFF" points="1002.5,406.1 1040.3,403.5 1040.3,404.1 1002.6,406.8 		"/>
		<path fill="#FFFFFF" d="M1052.8,404.2c0,0,0.1,0.1,0.4,0.1c0.3,0.1,0.6,0.2,1.1,0.3c0.5,0.1,1.1,0.2,1.8,0.3
			c0.7,0.1,1.5,0.1,2.4,0.2c3.5,0.2,8.3,0.2,13,0.2c9.5,0,18.9,0,18.9,0l0,0.6c0,0-9.5,0-18.9,0c-4.7,0-9.5,0-13-0.2
			c-0.9,0-1.7-0.1-2.4-0.2c-0.7-0.1-1.3-0.2-1.9-0.3c-0.5-0.1-1-0.2-1.2-0.3c-0.3-0.1-0.4-0.1-0.4-0.1L1052.8,404.2z"/>
		<path fill="#FFFFFF" d="M1103,405.5c0,0,0.6,0,1.6,0c1,0,2.5,0.1,4.3,0.1c1.8,0.1,3.8,0.1,6.1,0.3c1.1,0.1,2.3,0.1,3.4,0.2
			c1.2,0.1,2.3,0.2,3.5,0.2c1.2,0.1,2.4,0.2,3.5,0.3c1.2,0.1,2.3,0.2,3.4,0.3c1.1,0.1,2.2,0.2,3.2,0.4c1,0.1,2,0.3,2.8,0.4
			c0.9,0.1,1.7,0.2,2.4,0.4c0.7,0.1,1.3,0.2,1.8,0.3c1,0.2,1.6,0.3,1.6,0.3l-0.1,0.6c0,0-0.6-0.1-1.6-0.3c-0.5-0.1-1.1-0.2-1.8-0.3
			c-0.7-0.1-1.5-0.2-2.4-0.4c-0.9-0.1-1.8-0.3-2.8-0.4c-1-0.1-2.1-0.2-3.2-0.4c-1.1-0.1-2.2-0.2-3.4-0.3c-1.2-0.1-2.3-0.2-3.5-0.3
			c-1.2-0.1-2.4-0.2-3.5-0.2c-1.2-0.1-2.3-0.1-3.4-0.2c-2.2-0.1-4.3-0.2-6.1-0.3c-1.8-0.1-3.3-0.1-4.3-0.1c-1,0-1.6,0-1.6,0
			L1103,405.5z"/>
		<path fill="#FFFFFF" d="M1152.8,412.4c0,0,0.1,0.1,0.4,0.2c0.2,0.1,0.6,0.3,1.1,0.6c0.5,0.3,1,0.6,1.6,1c0.6,0.4,1.3,0.9,1.9,1.5
			c0.7,0.6,1.3,1.4,1.9,2.3c0.5,0.9,1,2,1.1,3.1c0.1,0.6,0.1,1.2,0,1.8c-0.1,0.6-0.3,1.2-0.6,1.7c-0.6,1.1-1.5,1.9-2.4,2.7
			c-1.9,1.5-4,2.7-6,3.6c-2,1-4,1.7-5.6,2.3c-1.7,0.6-3.1,1.1-4.1,1.4c-1,0.3-1.6,0.5-1.6,0.5l-0.2-0.6c0,0,0.6-0.2,1.5-0.5
			c1-0.3,2.4-0.8,4-1.4c1.7-0.6,3.6-1.4,5.6-2.3c2-1,4.1-2.1,5.9-3.6c0.9-0.7,1.7-1.6,2.3-2.5c0.3-0.5,0.5-1,0.6-1.5
			c0.1-0.5,0.1-1,0-1.6c-0.1-1.1-0.5-2-1-2.9c-0.5-0.8-1.1-1.6-1.8-2.2c-0.6-0.6-1.3-1.1-1.9-1.5c-0.6-0.4-1.1-0.7-1.6-1
			c-0.4-0.2-0.8-0.4-1.1-0.5c-0.2-0.1-0.4-0.2-0.4-0.2L1152.8,412.4z"/>
		<path fill="#FFFFFF" d="M1128.3,438.4c0,0-2.3,0.5-5.8,1.3c-0.9,0.2-1.8,0.4-2.8,0.6c-1,0.2-2.1,0.4-3.1,0.6
			c-1.1,0.2-2.2,0.4-3.4,0.7c-1.1,0.2-2.3,0.5-3.5,0.7c-2.3,0.4-4.7,0.8-6.9,1.2c-2.2,0.4-4.2,0.7-6,1c-3.5,0.6-5.8,0.9-5.8,0.9
			l-0.1-0.6c0,0,2.3-0.4,5.8-0.9c1.8-0.3,3.8-0.6,6-1c2.2-0.4,4.5-0.8,6.8-1.2c1.2-0.2,2.3-0.4,3.5-0.7c1.1-0.2,2.3-0.4,3.4-0.7
			c1.1-0.2,2.1-0.4,3.1-0.6c1-0.2,1.9-0.4,2.8-0.6c3.5-0.8,5.8-1.3,5.8-1.3L1128.3,438.4z"/>
		<polygon fill="#FFFFFF" points="1078.5,447.3 1041,451.9 1040.9,451.4 1078.5,446.7 		"/>
		<polygon fill="#FFFFFF" points="1028.4,453.2 990.7,456.8 990.7,456.2 1028.4,452.7 		"/>
		<polygon fill="#FFFFFF" points="978.1,457.8 940.4,460.6 940.3,460.1 978.1,457.3 		"/>
		<path fill="#FFFFFF" d="M927.8,461.4c0,0-2.4,0.1-5.9,0.4c-0.9,0.1-1.9,0.1-2.9,0.1c-1,0-2.1,0.1-3.2,0.1
			c-2.2,0.1-4.6,0.1-6.9,0.2c-9.5,0-18.9,0-18.9,0l0-0.5c0,0,9.5,0,18.9,0c2.4-0.1,4.7-0.1,6.9-0.2c1.1,0,2.2-0.1,3.2-0.1
			c1,0,2,0,2.9-0.1c3.5-0.2,5.9-0.4,5.9-0.4L927.8,461.4z"/>
		<polygon fill="#FFFFFF" points="877.3,462 839.5,461.2 839.5,460.7 877.3,461.5 		"/>
		<polygon fill="#FFFFFF" points="826.8,460.9 789,459.8 789.1,459.3 826.8,460.4 		"/>
		<polygon fill="#FFFFFF" points="776.4,459.4 738.7,458.1 738.7,457.6 776.5,458.9 		"/>
		<polygon fill="#FFFFFF" points="726,457.6 688.2,456.2 688.2,455.7 726.1,457.2 		"/>
		<polygon fill="#FFFFFF" points="675.6,455.7 637.8,454.1 637.8,453.7 675.6,455.2 		"/>
		<polygon fill="#FFFFFF" points="625.2,453.5 587.3,451.8 587.3,451.4 625.2,453.1 		"/>
		<polygon fill="#FFFFFF" points="574.7,451.2 536.9,449.2 536.9,448.8 574.7,450.8 		"/>
		<polygon fill="#FFFFFF" points="524.3,448.5 486.5,446.1 486.5,445.7 524.3,448.1 		"/>
		<polygon fill="#FFFFFF" points="473.9,444.9 436.2,441.8 436.2,441.4 474,444.6 		"/>
		<polygon fill="#FFFFFF" points="423.6,440.9 385.9,438.1 385.9,437.8 423.7,440.5 		"/>
		<polygon fill="#FFFFFF" points="373.3,437.3 335.5,434.7 335.5,434.3 373.3,436.9 		"/>
		<polygon fill="#FFFFFF" points="322.9,433.8 285.2,431.3 285.2,431 322.9,433.5 		"/>
		<polygon fill="#FFFFFF" points="272.6,430.4 234.8,427.9 234.8,427.7 272.6,430.1 		"/>
		<polygon fill="#FFFFFF" points="222.2,427.1 184.5,424.6 184.5,424.4 222.3,426.8 		"/>
		<polygon fill="#FFFFFF" points="171.9,423.8 134.1,421.3 134.1,421.2 171.9,423.6 		"/>
		<polygon fill="#FFFFFF" points="121.5,420.5 83.7,418.1 83.7,418 121.5,420.4 		"/>
		<polygon fill="#FFFFFF" points="71.1,417.3 33.3,414.9 33.3,414.8 71.1,417.2 		"/>
		<polygon fill="#FFFFFF" points="20.7,414.1 -17.1,411.7 -17.1,411.6 20.7,414 		"/>
	</g>
	<g clip-path="url(#SVGID_2_)">
		<circle fill="#FFFFFF" cx="642.8" cy="177.3" r="169.7"/>
	</g>
</g>
</svg>
