<?xml version="1.0" encoding="utf-8"?>
<!-- Generator: Adobe Illustrator 18.1.1, SVG Export Plug-In . SVG Version: 6.00 Build 0)  -->
<svg version="1.1" id="Layer_1" xmlns="http://www.w3.org/2000/svg" xmlns:xlink="http://www.w3.org/1999/xlink" x="0px" y="0px"
	 viewBox="0 0 1184.7 250.5" enable-background="new 0 0 1184.7 250.5" xml:space="preserve">
<g>
	<defs>
		<rect id="SVGID_3_" x="6" y="-563.6" width="1280" height="800"/>
	</defs>
	<clipPath id="SVGID_2_">
		<use xlink:href="#SVGID_3_"  overflow="visible"/>
	</clipPath>
	<g clip-path="url(#SVGID_2_)">
		<path fill="#5E3747" d="M75.4,137.4c-3.5,0-6.3,2.8-6.3,6.3v123.5c2.1-0.6,4.2-1.3,6.3-2V137.4z"/>
		<path fill="#824B61" d="M75.4,137.4v127.8c2.1-0.7,4.2-1.4,6.3-2.1V143.7C81.7,140.2,78.9,137.4,75.4,137.4z"/>
	</g>
	<g clip-path="url(#SVGID_2_)">
		<path fill="#5E3747" d="M110.2,136.7c-2.6,0-4.8,2.1-4.8,4.8v93.7c1.6-0.5,3.2-1,4.8-1.5V136.7z"/>
		<path fill="#824B61" d="M110.2,136.7v97c1.6-0.5,3.2-1.1,4.8-1.6v-90.6C115,138.8,112.8,136.7,110.2,136.7z"/>
		<path fill="#854D63" d="M105.4,235.2v376.4c0,2.6,2.1,4.8,4.8,4.8V233.7C108.6,234.2,107,234.7,105.4,235.2z"/>
		<path fill="#C5718E" d="M110.2,616.3c2.6,0,4.8-2.1,4.8-4.8V232.1c-1.6,0.6-3.2,1.1-4.8,1.6V616.3z"/>
	</g>
	<g clip-path="url(#SVGID_2_)">
		<g>
			<path fill="#5E3747" d="M1155.4,157.5c1.8,0,3.3,1.5,3.3,3.3v65.1c-1.1-0.3-2.2-0.7-3.3-1.1V157.5z"/>
			<path fill="#824B61" d="M1155.4,157.5v67.3c-1.1-0.4-2.2-0.7-3.3-1.1v-62.9C1152.1,159,1153.5,157.5,1155.4,157.5z"/>
			<path fill="#854D63" d="M1158.7,225.9v261.3c0,1.8-1.5,3.3-3.3,3.3V224.8C1156.5,225.2,1157.6,225.6,1158.7,225.9z"/>
			<path fill="#C5718E" d="M1155.4,490.5c-1.8,0-3.3-1.5-3.3-3.3V223.7c1.1,0.4,2.2,0.8,3.3,1.1V490.5z"/>
		</g>
		<g>
			<path fill="#5E3747" d="M1139.6,157.2c1.4,0,2.5,1.1,2.5,2.5V209c-0.8-0.3-1.7-0.5-2.5-0.8V157.2z"/>
			<path fill="#824B61" d="M1139.6,157.2v51.1c-0.8-0.3-1.7-0.6-2.5-0.8v-47.7C1137.1,158.3,1138.2,157.2,1139.6,157.2z"/>
			<path fill="#854D63" d="M1142.1,209v198.2c0,1.4-1.1,2.5-2.5,2.5V208.2C1140.4,208.5,1141.3,208.8,1142.1,209z"/>
			<path fill="#C5718E" d="M1139.6,409.7c-1.4,0-2.5-1.1-2.5-2.5V207.4c0.8,0.3,1.7,0.6,2.5,0.8V409.7z"/>
		</g>
	</g>
	<g clip-path="url(#SVGID_2_)">
		<g>
			<path fill="#5E3747" d="M1073.4,127.6c-1.8,0-3.3,1.5-3.3,3.3v65.1c1.1-0.3,2.2-0.7,3.3-1.1V127.6z"/>
			<path fill="#824B61" d="M1073.4,127.6v67.3c1.1-0.4,2.2-0.7,3.3-1.1v-62.9C1076.7,129.1,1075.2,127.6,1073.4,127.6z"/>
			<path fill="#854D63" d="M1070.1,195.9v261.3c0,1.8,1.5,3.3,3.3,3.3V194.9C1072.3,195.3,1071.2,195.6,1070.1,195.9z"/>
			<path fill="#C5718E" d="M1073.4,460.6c1.8,0,3.3-1.5,3.3-3.3V193.8c-1.1,0.4-2.2,0.8-3.3,1.1V460.6z"/>
		</g>
		<g>
			<path fill="#5E3747" d="M1089.2,127.2c-1.4,0-2.5,1.1-2.5,2.5v49.3c0.8-0.3,1.7-0.5,2.5-0.8V127.2z"/>
			<path fill="#824B61" d="M1089.2,127.2v51.1c0.8-0.3,1.7-0.6,2.5-0.9v-47.7C1091.7,128.3,1090.6,127.2,1089.2,127.2z"/>
			<path fill="#854D63" d="M1086.7,179.1v198.2c0,1.4,1.1,2.5,2.5,2.5V178.3C1088.4,178.6,1087.5,178.8,1086.7,179.1z"/>
			<path fill="#C5718E" d="M1089.2,379.8c1.4,0,2.5-1.1,2.5-2.5V177.4c-0.8,0.3-1.7,0.6-2.5,0.9V379.8z"/>
		</g>
	</g>
	<g clip-path="url(#SVGID_2_)">
		<g>
			<path fill="#5E3747" d="M845,188.8c-1.9,0-3.5,1.5-3.5,3.4v67.8c1.1-0.3,2.3-0.7,3.5-1.1V188.8z"/>
			<path fill="#824B61" d="M845,188.8V259c1.1-0.4,2.3-0.8,3.4-1.2v-65.5C848.4,190.4,846.9,188.8,845,188.8z"/>
		</g>
		<g>
			<path fill="#5E3747" d="M861.4,188.4c-1.4,0-2.6,1.2-2.6,2.6v51.4c0.9-0.3,1.7-0.5,2.6-0.8V188.4z"/>
			<path fill="#824B61" d="M861.4,188.4v53.2c0.9-0.3,1.7-0.6,2.6-0.9v-49.7C864.1,189.6,862.9,188.4,861.4,188.4z"/>
			<path fill="#854D63" d="M858.8,242.5v206.6c0,1.4,1.2,2.6,2.6,2.6v-210C860.6,241.9,859.7,242.2,858.8,242.5z"/>
			<path fill="#C5718E" d="M861.4,451.7c1.4,0,2.6-1.2,2.6-2.6V240.8c-0.9,0.3-1.8,0.6-2.6,0.9V451.7z"/>
		</g>
	</g>
	<g clip-path="url(#SVGID_2_)">
		<g>
			<path fill="#5E3747" d="M795.2,145.9c-1,0-1.8,1.6-1.8,3.6v70.6c0.6-0.4,1.2-0.7,1.8-1.1V145.9z"/>
			<path fill="#824B61" d="M795.2,145.9V219c0.6-0.4,1.2-0.8,1.8-1.2v-68.3C797,147.5,796.2,145.9,795.2,145.9z"/>
			<path fill="#854D63" d="M793.4,220.2v283.8c0,2,0.8,3.6,1.8,3.6V219C794.6,219.4,794,219.8,793.4,220.2z"/>
			<path fill="#C5718E" d="M795.2,507.5c1,0,1.8-1.6,1.8-3.6V217.8c-0.6,0.4-1.2,0.8-1.8,1.2V507.5z"/>
		</g>
		<g>
			<path fill="#5E3747" d="M803.7,145.5c-0.7,0-1.3,1.2-1.3,2.7v53.6c0.4-0.3,0.9-0.6,1.3-0.9V145.5z"/>
			<path fill="#824B61" d="M803.7,145.5V201c0.4-0.3,0.9-0.6,1.3-0.9v-51.8C805,146.7,804.4,145.5,803.7,145.5z"/>
			<path fill="#854D63" d="M802.3,201.8v215.2c0,1.5,0.6,2.7,1.3,2.7V201C803.2,201.3,802.8,201.6,802.3,201.8z"/>
			<path fill="#C5718E" d="M803.7,419.8c0.7,0,1.3-1.2,1.3-2.7V200c-0.5,0.3-0.9,0.6-1.3,0.9V419.8z"/>
		</g>
	</g>
	<g clip-path="url(#SVGID_2_)">
		<g>
			<path fill="#5E3747" d="M643.8,144.2c-1,0-1.8,1.6-1.8,3.6v70.6c0.6-0.4,1.2-0.7,1.8-1.1V144.2z"/>
			<path fill="#824B61" d="M643.8,144.2v73.1c0.6-0.4,1.2-0.8,1.8-1.2v-68.3C645.5,145.9,644.7,144.2,643.8,144.2z"/>
			<path fill="#854D63" d="M642,218.5v283.8c0,2,0.8,3.6,1.8,3.6V217.3C643.2,217.7,642.6,218.1,642,218.5z"/>
			<path fill="#C5718E" d="M643.8,505.8c1,0,1.8-1.6,1.8-3.6V216.1c-0.6,0.4-1.2,0.8-1.8,1.2V505.8z"/>
		</g>
		<g>
			<path fill="#5E3747" d="M652.3,143.9c-0.7,0-1.4,1.2-1.4,2.7v53.6c0.4-0.3,0.9-0.6,1.4-0.9V143.9z"/>
			<path fill="#824B61" d="M652.3,143.9v55.4c0.4-0.3,0.9-0.6,1.3-0.9v-51.8C653.6,145.1,653,143.9,652.3,143.9z"/>
			<path fill="#854D63" d="M650.9,200.2v215.2c0,1.5,0.6,2.7,1.4,2.7V199.3C651.8,199.6,651.3,199.9,650.9,200.2z"/>
			<path fill="#C5718E" d="M652.3,418.1c0.7,0,1.3-1.2,1.3-2.7v-217c-0.5,0.3-0.9,0.6-1.3,0.9V418.1z"/>
		</g>
	</g>
	<g clip-path="url(#SVGID_2_)">
		<g>
			<path fill="#5E3747" d="M511.5,132c-0.7,0-1.3,1.5-1.3,3.5v68c0.4-0.4,0.9-0.7,1.3-1.1V132z"/>
			<path fill="#824B61" d="M511.5,132v70.4c0.4-0.4,0.9-0.8,1.3-1.2v-65.7C512.9,133.6,512.3,132,511.5,132z"/>
			<path fill="#854D63" d="M510.2,203.5v273.1c0,1.9,0.6,3.5,1.3,3.5V202.4C511.1,202.8,510.6,203.2,510.2,203.5z"/>
			<path fill="#C5718E" d="M511.5,480.1c0.7,0,1.3-1.5,1.3-3.5V201.2c-0.4,0.4-0.9,0.8-1.3,1.2V480.1z"/>
		</g>
		<g>
			<path fill="#5E3747" d="M517.9,131.7c-0.6,0-1,1.2-1,2.6v51.6c0.3-0.3,0.7-0.5,1-0.8V131.7z"/>
			<path fill="#824B61" d="M517.9,131.7V185c0.3-0.3,0.7-0.6,1-0.9v-49.9C518.9,132.8,518.5,131.7,517.9,131.7z"/>
			<path fill="#854D63" d="M516.9,185.9V393c0,1.4,0.5,2.6,1,2.6V185C517.6,185.3,517.2,185.6,516.9,185.9z"/>
			<path fill="#C5718E" d="M517.9,395.7c0.6,0,1-1.2,1-2.6V184.1c-0.3,0.3-0.7,0.6-1,0.9V395.7z"/>
		</g>
	</g>
	<g clip-path="url(#SVGID_2_)">
		<g>
			<path fill="#5E3747" d="M430.9,107.5c-0.7,0-1.3,1.5-1.3,3.5v68c0.4-0.4,0.9-0.7,1.3-1.1V107.5z"/>
			<path fill="#824B61" d="M430.9,107.5v70.4c0.4-0.4,0.9-0.8,1.3-1.2V111C432.2,109.1,431.6,107.5,430.9,107.5z"/>
			<path fill="#854D63" d="M429.6,179v273.1c0,1.9,0.6,3.5,1.3,3.5V177.9C430.4,178.3,430,178.7,429.6,179z"/>
			<path fill="#C5718E" d="M430.9,455.6c0.7,0,1.3-1.5,1.3-3.5V176.7c-0.4,0.4-0.9,0.8-1.3,1.2V455.6z"/>
		</g>
		<g>
			<path fill="#5E3747" d="M437.3,107.2c-0.6,0-1,1.2-1,2.6v51.6c0.3-0.3,0.7-0.5,1-0.8V107.2z"/>
			<path fill="#824B61" d="M437.3,107.2v53.4c0.3-0.3,0.7-0.6,1-0.9v-49.9C438.3,108.4,437.8,107.2,437.3,107.2z"/>
			<path fill="#854D63" d="M436.2,161.4v207.2c0,1.4,0.5,2.6,1,2.6V160.5C436.9,160.8,436.6,161.1,436.2,161.4z"/>
			<path fill="#C5718E" d="M437.3,371.2c0.6,0,1-1.2,1-2.6V159.7c-0.3,0.3-0.7,0.6-1,0.9V371.2z"/>
		</g>
	</g>
	<g clip-path="url(#SVGID_2_)">
		<g>
			<path fill="#5E3747" d="M485.8,100.3c-0.6,0-1,1.5-1,3.3v65.6c0.3-0.3,0.7-0.7,1-1.1V100.3z"/>
			<path fill="#824B61" d="M485.8,100.3v67.9c0.3-0.4,0.7-0.7,1-1.1v-63.4C486.8,101.8,486.4,100.3,485.8,100.3z"/>
			<path fill="#854D63" d="M484.8,169.2v263.6c0,1.8,0.5,3.3,1,3.3v-268C485.5,168.5,485.1,168.9,484.8,169.2z"/>
			<path fill="#C5718E" d="M485.8,436.1c0.6,0,1-1.5,1-3.3V167c-0.3,0.4-0.7,0.8-1,1.1V436.1z"/>
		</g>
		<g>
			<path fill="#5E3747" d="M490.7,99.9c-0.4,0-0.8,1.1-0.8,2.5v49.8c0.3-0.3,0.5-0.5,0.8-0.8V99.9z"/>
			<path fill="#824B61" d="M490.7,99.9v51.5c0.3-0.3,0.5-0.6,0.8-0.9v-48.1C491.4,101,491.1,99.9,490.7,99.9z"/>
			<path fill="#854D63" d="M489.9,152.2v199.9c0,1.4,0.3,2.5,0.8,2.5V151.4C490.4,151.7,490.2,152,489.9,152.2z"/>
			<path fill="#C5718E" d="M490.7,354.7c0.4,0,0.8-1.1,0.8-2.5V150.5c-0.3,0.3-0.5,0.6-0.8,0.9V354.7z"/>
		</g>
	</g>
	<g clip-path="url(#SVGID_2_)">
		<g>
			<path fill="#5E3747" d="M575.8,110.8c-0.6,0-1,1.5-1,3.3v65.6c0.3-0.3,0.7-0.7,1-1.1V110.8z"/>
			<path fill="#824B61" d="M575.8,110.8v67.9c0.3-0.4,0.7-0.7,1-1.1v-63.4C576.8,112.3,576.4,110.8,575.8,110.8z"/>
			<path fill="#854D63" d="M574.8,179.8v263.6c0,1.8,0.5,3.3,1,3.3v-268C575.5,179.1,575.1,179.5,574.8,179.8z"/>
			<path fill="#C5718E" d="M575.8,446.7c0.6,0,1-1.5,1-3.3V177.6c-0.3,0.4-0.7,0.8-1,1.1V446.7z"/>
		</g>
		<g>
			<path fill="#5E3747" d="M580.7,110.5c-0.4,0-0.8,1.1-0.8,2.5v49.8c0.3-0.3,0.5-0.5,0.8-0.8V110.5z"/>
			<path fill="#824B61" d="M580.7,110.5V162c0.3-0.3,0.5-0.6,0.8-0.9V113C581.4,111.6,581.1,110.5,580.7,110.5z"/>
			<path fill="#854D63" d="M579.9,162.8v199.9c0,1.4,0.3,2.5,0.8,2.5V162C580.4,162.3,580.2,162.5,579.9,162.8z"/>
			<path fill="#C5718E" d="M580.7,365.2c0.4,0,0.8-1.1,0.8-2.5V161.1c-0.3,0.3-0.5,0.6-0.8,0.9V365.2z"/>
		</g>
	</g>
	<g clip-path="url(#SVGID_2_)">
		<g>
			<path fill="#5E3747" d="M705.5,105.6c-0.6,0-1,1.5-1,3.3v65.6c0.3-0.3,0.7-0.7,1-1.1V105.6z"/>
			<path fill="#824B61" d="M705.5,105.6v67.9c0.3-0.4,0.7-0.7,1-1.1v-63.4C706.6,107.1,706.1,105.6,705.5,105.6z"/>
			<path fill="#854D63" d="M704.5,174.6v263.6c0,1.8,0.5,3.3,1,3.3v-268C705.2,173.9,704.9,174.2,704.5,174.6z"/>
			<path fill="#C5718E" d="M705.5,441.5c0.6,0,1-1.5,1-3.3V172.4c-0.3,0.4-0.7,0.8-1,1.1V441.5z"/>
		</g>
		<g>
			<path fill="#5E3747" d="M710.4,105.2c-0.4,0-0.8,1.1-0.8,2.5v49.8c0.3-0.3,0.5-0.5,0.8-0.8V105.2z"/>
			<path fill="#824B61" d="M710.4,105.2v51.5c0.3-0.3,0.5-0.6,0.8-0.9v-48.1C711.2,106.4,710.8,105.2,710.4,105.2z"/>
			<path fill="#854D63" d="M709.6,157.6v199.9c0,1.4,0.3,2.5,0.8,2.5V156.7C710.1,157,709.9,157.3,709.6,157.6z"/>
			<path fill="#C5718E" d="M710.4,360c0.4,0,0.8-1.1,0.8-2.5V155.9c-0.3,0.3-0.5,0.6-0.8,0.9V360z"/>
		</g>
	</g>
	<g clip-path="url(#SVGID_2_)">
		<g>
			<path fill="#5E3747" d="M846.1,91.5c-0.6,0-1,1.5-1,3.3v65.6c0.3-0.3,0.7-0.7,1-1.1V91.5z"/>
			<path fill="#824B61" d="M846.1,91.5v67.9c0.3-0.4,0.7-0.7,1-1.1V94.8C847.1,93,846.7,91.5,846.1,91.5z"/>
			<path fill="#854D63" d="M845.1,160.5V424c0,1.8,0.5,3.3,1,3.3v-268C845.8,159.8,845.4,160.1,845.1,160.5z"/>
			<path fill="#C5718E" d="M846.1,427.4c0.6,0,1-1.5,1-3.3V158.3c-0.3,0.4-0.7,0.8-1,1.1V427.4z"/>
		</g>
		<g>
			<path fill="#5E3747" d="M851,91.1c-0.4,0-0.8,1.1-0.8,2.5v49.8c0.3-0.3,0.5-0.5,0.8-0.8V91.1z"/>
			<path fill="#824B61" d="M851,91.1v51.5c0.3-0.3,0.5-0.6,0.8-0.9V93.7C851.8,92.3,851.4,91.1,851,91.1z"/>
			<path fill="#854D63" d="M850.2,143.5v199.9c0,1.4,0.3,2.5,0.8,2.5V142.6C850.7,142.9,850.5,143.2,850.2,143.5z"/>
			<path fill="#C5718E" d="M851,345.9c0.4,0,0.8-1.1,0.8-2.5V141.8c-0.3,0.3-0.5,0.6-0.8,0.9V345.9z"/>
		</g>
	</g>
	<g clip-path="url(#SVGID_2_)">
		<g>
			<path fill="#5E3747" d="M775.2,90.1c-0.3,0-0.5,1.7-0.5,3.7v72.5c0.2-0.4,0.3-0.8,0.5-1.2V90.1z"/>
			<path fill="#824B61" d="M775.2,90.1v75c0.2-0.4,0.3-0.8,0.5-1.2V93.8C775.7,91.7,775.5,90.1,775.2,90.1z"/>
			<path fill="#854D63" d="M774.7,166.3v291.3c0,2,0.2,3.7,0.5,3.7V165.1C775,165.5,774.9,165.9,774.7,166.3z"/>
			<path fill="#C5718E" d="M775.2,461.3c0.3,0,0.5-1.7,0.5-3.7V163.9c-0.2,0.4-0.3,0.8-0.5,1.2V461.3z"/>
		</g>
		<g>
			<path fill="#5E3747" d="M777.6,89.7c-0.2,0-0.4,1.3-0.4,2.8v55c0.1-0.3,0.3-0.6,0.4-0.9V89.7z"/>
			<path fill="#824B61" d="M777.6,89.7v56.9c0.1-0.3,0.3-0.6,0.4-0.9V92.5C777.9,90.9,777.8,89.7,777.6,89.7z"/>
			<path fill="#854D63" d="M777.2,147.5v221c0,1.5,0.2,2.8,0.4,2.8V146.6C777.4,146.9,777.3,147.2,777.2,147.5z"/>
			<path fill="#C5718E" d="M777.6,371.3c0.2,0,0.4-1.3,0.4-2.8V145.7c-0.1,0.3-0.3,0.6-0.4,0.9V371.3z"/>
		</g>
	</g>
	<g clip-path="url(#SVGID_2_)">
		<g>
			<path fill="#5E3747" d="M703.4,82c-0.3,0-0.5,1.7-0.5,3.7v72.5c0.2-0.4,0.3-0.8,0.5-1.2V82z"/>
			<path fill="#824B61" d="M703.4,82v75c0.2-0.4,0.3-0.8,0.5-1.2V85.7C703.9,83.6,703.7,82,703.4,82z"/>
			<path fill="#854D63" d="M702.9,158.2v291.3c0,2,0.2,3.7,0.5,3.7V157C703.2,157.4,703.1,157.8,702.9,158.2z"/>
			<path fill="#C5718E" d="M703.4,453.2c0.3,0,0.5-1.7,0.5-3.7V155.8c-0.2,0.4-0.3,0.8-0.5,1.2V453.2z"/>
		</g>
		<g>
			<path fill="#5E3747" d="M705.8,81.6c-0.2,0-0.4,1.3-0.4,2.8v55c0.1-0.3,0.2-0.6,0.4-0.9V81.6z"/>
			<path fill="#824B61" d="M705.8,81.6v56.9c0.1-0.3,0.2-0.6,0.4-0.9V84.4C706.1,82.8,706,81.6,705.8,81.6z"/>
			<path fill="#854D63" d="M705.4,139.4v221c0,1.5,0.2,2.8,0.4,2.8V138.5C705.6,138.8,705.5,139.1,705.4,139.4z"/>
			<path fill="#C5718E" d="M705.8,363.2c0.2,0,0.4-1.3,0.4-2.8V137.6c-0.1,0.3-0.3,0.6-0.4,0.9V363.2z"/>
		</g>
	</g>
	<g clip-path="url(#SVGID_2_)">
		<g>
			<path fill="#5E3747" d="M651.8,74.6c-0.3,0-0.5,1.7-0.5,3.7v72.5c0.2-0.4,0.3-0.8,0.5-1.2V74.6z"/>
			<path fill="#824B61" d="M651.8,74.6v75c0.2-0.4,0.3-0.8,0.5-1.2V78.3C652.3,76.3,652.1,74.6,651.8,74.6z"/>
			<path fill="#854D63" d="M651.3,150.9v291.3c0,2,0.2,3.7,0.5,3.7V149.7C651.6,150.1,651.5,150.5,651.3,150.9z"/>
			<path fill="#C5718E" d="M651.8,445.9c0.3,0,0.5-1.7,0.5-3.7V148.4c-0.2,0.4-0.3,0.9-0.5,1.2V445.9z"/>
		</g>
		<g>
			<path fill="#5E3747" d="M654.2,74.3c-0.2,0-0.4,1.3-0.4,2.8v55c0.1-0.3,0.3-0.6,0.4-0.9V74.3z"/>
			<path fill="#824B61" d="M654.2,74.3v56.9c0.1-0.3,0.3-0.6,0.4-0.9V77C654.6,75.5,654.4,74.3,654.2,74.3z"/>
			<path fill="#854D63" d="M653.8,132.1v221c0,1.5,0.2,2.8,0.4,2.8V131.2C654.1,131.5,653.9,131.8,653.8,132.1z"/>
			<path fill="#C5718E" d="M654.2,355.8c0.2,0,0.4-1.3,0.4-2.8V130.2c-0.1,0.3-0.3,0.6-0.4,0.9V355.8z"/>
		</g>
	</g>
	<g clip-path="url(#SVGID_2_)">
		<g>
			<path fill="#5E3747" d="M577,47.4c-0.3,0-0.5,1.7-0.5,3.7v72.5c0.2-0.4,0.3-0.8,0.5-1.2V47.4z"/>
			<path fill="#824B61" d="M577,47.4v75c0.2-0.4,0.3-0.8,0.5-1.2V51.1C577.5,49.1,577.3,47.4,577,47.4z"/>
			<path fill="#854D63" d="M576.5,123.6V415c0,2,0.2,3.7,0.5,3.7V122.5C576.8,122.9,576.7,123.3,576.5,123.6z"/>
			<path fill="#C5718E" d="M577,418.7c0.3,0,0.5-1.7,0.5-3.7V121.2c-0.2,0.4-0.3,0.8-0.5,1.2V418.7z"/>
		</g>
		<g>
			<path fill="#5E3747" d="M579.4,47c-0.2,0-0.4,1.3-0.4,2.8v55c0.1-0.3,0.2-0.6,0.4-0.9V47z"/>
			<path fill="#824B61" d="M579.4,47v56.9c0.1-0.3,0.3-0.6,0.4-0.9V49.8C579.7,48.3,579.6,47,579.4,47z"/>
			<path fill="#854D63" d="M579,104.8v221c0,1.5,0.2,2.8,0.4,2.8V103.9C579.2,104.3,579.1,104.6,579,104.8z"/>
			<path fill="#C5718E" d="M579.4,328.6c0.2,0,0.4-1.3,0.4-2.8V103c-0.1,0.3-0.3,0.6-0.4,0.9V328.6z"/>
		</g>
	</g>
	<g clip-path="url(#SVGID_2_)">
		<g enable-background="new    ">
			<g enable-background="new    ">
				<defs>
					<path id="SVGID_5_" enable-background="new    " d="M831.2,92.3l-3.5,11.8c-6.1,0.3-13,0.7-21.1,1.2
						c-9.8,0.6-19.6,1.1-29.2,1.3c-34.4,0.7-67.3-1.4-98.1-6.4c-31.6-5.1-59-16.9-85.4-27.7c-45.4-18.6-68.1-41.9-69-42.7l3.5-11.8
						c0.9,0.8,23.5,24.1,69,42.7c26.5,10.8,53.9,22.6,85.4,27.7c30.8,5,63.6,7.1,98.1,6.4c9.6-0.2,19.3-0.6,29.2-1.3
						C818.2,93,825.2,92.6,831.2,92.3z"/>
				</defs>
				<clipPath id="SVGID_4_">
					<use xlink:href="#SVGID_5_"  overflow="visible"/>
				</clipPath>
				<path clip-path="url(#SVGID_4_)" fill="#824B61" d="M810.1,85.5c-9.8,0.6-19.6,1.1-29.2,1.3c-34.4,0.7-67.3-1.4-98.1-6.4
					c-31.6-5.1-59-16.9-85.4-27.7c-45.4-18.6-68.1-41.9-69-42.7l3.6,3.4c0.9,0.8,19.5,23.7,61,45.2c28.5,14.8,54.8,25.4,86.3,30.5
					c30.8,5,63.6,10.2,98.1,9.5c9.6-0.2,19.3-0.6,29.2-1.3c8.1-0.5,15-0.9,21.1-1.2l3.5-11.8C825.2,84.6,818.2,85,810.1,85.5z"/>
			</g>
			<g enable-background="new    ">
				<defs>
					<path id="SVGID_7_" enable-background="new    " d="M878.2,89.9c-1,3.4-2,6.7-3,10.1c-0.2,0.6-0.3,1.2-0.5,1.8
						c-0.2,0.5-0.4,1-0.7,1.5c-1.4,2.1-3.4,5.2-41.9,11c-25,3.8-57,7.3-90,9.9c-24,1.9-58.2,4.1-96.3,4.9
						c-43.6,0.9-92.3,0-136.6-5.3c-24.9-2.9-41.5-3.7-52.2-3.4c-5.9,0.1-10,0.5-12.6,1l3.5-11.8c2.7-0.5,6.7-0.9,12.6-1
						c10.7-0.2,27.3,0.5,52.2,3.4c44.3,5.2,93,6.2,136.6,5.3c38.1-0.8,72.4-3,96.3-4.9c33-2.6,65-6.1,90-9.9
						c38.5-5.8,40.5-8.9,41.9-11C877.8,90.9,878.1,90.4,878.2,89.9z"/>
				</defs>
				<clipPath id="SVGID_6_">
					<use xlink:href="#SVGID_7_"  overflow="visible"/>
				</clipPath>
				<g clip-path="url(#SVGID_6_)">
					<path fill="#91465F" d="M878,90.5l-3.3,5.7c-0.2,0.5-0.4,1-0.7,1.5c-0.3,0.5-0.7,1-1.4,1.6l3.5-11.8c0.8-0.6,1.1-1.1,1.4-1.6"
						/>
					<path fill="#824B61" d="M876.1,87.3l-3.5,11.8c-2.7,2-10.7,4.9-40.5,9.4c-25,3.8-57,7.3-90,9.9c-24,1.9-58.2,4.1-96.3,4.9
						c-43.6,0.9-92.3,0-136.6-5.3c-24.9-2.9-41.5-3.7-52.2-3.4c-5.9,0.1-10,0.5-12.6,1l3.5-11.8c2.7-0.5,6.7-0.9,12.6-1
						c10.7-0.2,27.3,0.5,52.2,3.4c44.3,5.2,93,6.2,136.6,5.3c38.1-0.8,72.4-3,96.3-4.9c33-2.6,65-6.1,90-9.9
						C865.4,92.2,873.4,89.3,876.1,87.3"/>
				</g>
			</g>
			<g enable-background="new    ">
				<defs>
					<path id="SVGID_9_" enable-background="new    " d="M430.3,118c1.2-4,2.3-7.9,3.5-11.8c-0.6,2.1-0.2,4.4,1.3,6.4
						c1.5,2.2,6.2,8.8,44.2,17.3c18.9,4.3,52.1,10.3,103,14.8c45.2,4,109,7.2,191.1,5.5c54.1-1.1,116.1-4.4,185.9-10.9
						c39.1-3.7,75-5.9,106.2-6.5c18.3-0.4,35-0.2,49.8,0.5c40.7,1.9,53.9,7.6,56,10l-3.5,11.8c-2.1-2.4-15.3-8-56-10
						c-14.8-0.7-31.4-0.9-49.8-0.5c-31.2,0.6-67,2.8-106.2,6.5c-69.8,6.6-131.8,9.8-185.8,10.9c-82,1.7-145.9-1.5-191.1-5.5
						c-51-4.5-84.2-10.5-103-14.8c-38-8.6-42.7-15.2-44.2-17.3C430.1,122.4,429.7,120.1,430.3,118z"/>
				</defs>
				<clipPath id="SVGID_8_">
					<use xlink:href="#SVGID_9_"  overflow="visible"/>
				</clipPath>
				<g clip-path="url(#SVGID_8_)">
					<path fill="#824B61" d="M1171.2,140.2l-3.5,11.8c-2.1-2.4-15.3-8-56-10c-14.8-0.7-31.4-0.9-49.8-0.5
						c-31.2,0.6-67,2.8-106.2,6.5c-69.8,6.6-131.8,9.8-185.8,10.9c-82,1.7-145.9-1.5-191.1-5.5c-51-4.5-84.2-10.5-103-14.8
						c-38-8.6-42.7-15.2-44.2-17.3c-1.4-2.1-1.9-4.4-1.3-6.4l3.5-11.8c-0.6,2.1-0.2,4.4,1.3,6.4c1.5,2.2,6.2,8.8,44.2,17.3
						c18.9,4.3,52.1,10.3,103,14.8c45.2,4,109,7.2,191.1,5.5c54.1-1.1,116.1-4.4,185.9-10.9c39.1-3.7,75-5.9,106.2-6.5
						c18.3-0.4,35-0.2,49.8,0.5C1155.9,132.2,1169.1,137.8,1171.2,140.2"/>
				</g>
			</g>
			<g>
				<polygon fill="#91465F" points="10.5,157.2 7,169 -9,120.4 -5.5,108.6 				"/>
			</g>
			<g enable-background="new    ">
				<defs>
					<path id="SVGID_11_" enable-background="new    " d="M1182.2,146.3c-1.2,3.9-2.3,7.9-3.5,11.8c-0.3,0.9-0.7,1.8-1.2,2.6
						c-6.3,10.1-34.4,19.3-83.5,27.5c-54.3,9-129.1,15.6-216.2,18.9c-18.6,0.7-38.8,1.3-60.7,1.8C650.2,212.4,386.4,206.7,7,169
						l3.5-11.8c379.5,37.7,643.2,43.4,810.1,39.9c21.9-0.5,42.1-1.1,60.7-1.8c87.2-3.3,161.9-9.9,216.2-18.9
						c49.1-8.2,77.2-17.4,83.5-27.5C1181.5,148.1,1181.9,147.2,1182.2,146.3z"/>
				</defs>
				<clipPath id="SVGID_10_">
					<use xlink:href="#SVGID_11_"  overflow="visible"/>
				</clipPath>
				<g clip-path="url(#SVGID_10_)">
					<path fill="#91465F" d="M1182.2,146.3l-3.5,11.8c-0.3,0.9-0.7,1.8-1.2,2.6c-1,1.6-2.5,3.1-4.5,4.7l3.5-11.8
						c2-1.5,3.6-3.1,4.5-4.7C1181.5,148.1,1181.9,147.2,1182.2,146.3"/>
					<path fill="#824B61" d="M1176.4,153.6l-3.5,11.8c-11,8.3-37.5,15.9-79,22.8c-54.3,9-129.1,15.6-216.2,18.9
						c-18.6,0.7-38.8,1.3-60.7,1.8C650.2,212.4,386.4,206.7,7,169l3.5-11.8c379.5,37.7,643.2,43.4,810.1,39.9
						c21.9-0.5,42.1-1.1,60.7-1.8c87.2-3.3,161.9-9.9,216.2-18.9C1138.9,169.5,1165.4,161.9,1176.4,153.6"/>
				</g>
			</g>
			<path fill="#C5718E" d="M1180.7,138.1c-3.3-4.6-10.4-7.9-22.6-10.5c-11.1-2.3-25.9-3.9-44.1-4.8c-14.7-0.7-31.2-0.8-49.3-0.4
				c-31.5,0.6-67.7,2.9-107.1,6.6c-69.5,6.5-131.2,9.8-185,10.9c-80.8,1.7-143.7-1.5-188.3-5.4c-50.3-4.4-83.1-10.3-101.7-14.4
				c-20.6-4.6-30.3-8.4-34.7-10.7c2.7-0.5,6.7-0.9,12.6-1c10.7-0.2,27.3,0.5,52.2,3.4c44.3,5.2,93,6.2,136.6,5.3
				c38.1-0.8,72.4-3,96.3-4.9c33-2.6,65-6.1,90-9.9c38.5-5.8,40.5-8.9,41.9-11c1.2-1.9,1.2-4.2-0.1-6.1c-2-3-5.4-4.2-21-4.3
				c-2.2,0-4.6,0-7.2,0.1c-10.4,0.2-24,0.9-40.4,1.9c-9.8,0.6-19.2,1-28.4,1.2C696.1,86,636.6,69.8,600.3,55.1
				c-43.5-17.7-63.9-37.1-64.1-37.3l-7.8-7.6c0.9,0.8,23.6,31.9,69,50.5c26.5,10.8,53.9,22.6,85.4,27.7c30.8,5,63.6,7.1,98.1,6.4
				c9.6-0.2,19.3-0.6,29.2-1.3c8.1-0.5,15-0.9,21.1-1.2c-22.4,3.3-53.9,7-92.3,9.9c-22.6,1.7-54.6,3.7-90.4,4.4
				c-43,0.9-91.3,0-135-5.2c-25-3-41.9-3.8-53.4-3.6c-21.5,0.4-24.3,4.7-25.5,6.6c-1.6,2.5-1.4,5.5,0.4,8.2
				c1.5,2.2,6.2,8.8,44.2,17.3c18.9,4.3,52.1,10.3,103,14.8c45.2,4,109,7.2,191.1,5.5c54.1-1.1,116.1-4.4,185.9-10.9
				c39.1-3.7,75-5.9,106.2-6.5c18.3-0.4,35-0.2,49.8,0.5c40.7,1.9,53.9,7.6,56,10c-0.6,0.9-3.4,4.2-16.6,8.9
				c-12.5,4.4-30.5,6.4-53,10.4c-36.5,6.4-97.8,6.9-207.2,11.4c-7,0.3-14.3,0.5-21.8,0.7c-165.7,3.4-462.4-24.8-878-66.1l15.9,48.6
				c379.5,37.7,643.2,43.4,810.1,39.9c21.9-0.5,42.1-1.1,60.7-1.8c87.2-3.3,161.9-9.9,216.2-18.9c49.1-8.2,77.2-17.4,83.5-27.5
				C1183.2,145.4,1183.1,141.4,1180.7,138.1z"/>
		</g>
	</g>
	<g clip-path="url(#SVGID_2_)">
		<path fill="#FFFFFF" d="M517.9,8.8c0,0,0.2,0.2,0.5,0.6c0.3,0.4,0.8,1,1.4,1.6c0.3,0.3,0.6,0.7,0.9,1.1c0.3,0.4,0.7,0.8,1.1,1.2
			c0.8,0.8,1.6,1.6,2.4,2.5c0.4,0.4,0.8,0.9,1.3,1.2c0.4,0.4,0.9,0.8,1.3,1.1c0.8,0.7,1.6,1.4,2.2,2c1.3,1.2,2.2,2,2.2,2l0,0
			c0,0-0.9-0.8-2.2-2c-0.7-0.6-1.4-1.3-2.2-2c-0.4-0.4-0.8-0.8-1.3-1.1c-0.4-0.4-0.8-0.8-1.2-1.2c-0.8-0.8-1.6-1.7-2.4-2.5
			c-0.4-0.4-0.8-0.8-1.1-1.2c-0.3-0.4-0.6-0.7-0.9-1.1c-0.6-0.7-1.1-1.2-1.4-1.6C518.1,9.1,517.9,8.8,517.9,8.8z"/>
		<path fill="#FFFFFF" d="M541.1,29.9c0,0,1.9,1.3,4.9,3.4c0.7,0.5,1.5,1.1,2.4,1.6c0.9,0.5,1.8,1.1,2.7,1.7
			c0.9,0.6,1.9,1.2,2.9,1.8c0.5,0.3,1,0.6,1.5,0.9c0.5,0.3,1,0.6,1.5,0.9c2.1,1.2,4.1,2.3,6,3.4c1,0.6,1.9,1,2.8,1.5
			c0.9,0.5,1.8,0.9,2.5,1.3c3.2,1.6,5.3,2.7,5.3,2.7l0,0.1c0,0-2.1-1.1-5.3-2.7c-0.8-0.4-1.6-0.8-2.5-1.3c-0.9-0.5-1.9-0.9-2.8-1.5
			c-1.9-1.1-4-2.3-6-3.4c-0.5-0.3-1-0.6-1.5-0.9c-0.5-0.3-1-0.6-1.5-0.9c-1-0.6-2-1.2-2.9-1.8c-0.9-0.6-1.8-1.2-2.7-1.7
			c-0.9-0.5-1.6-1.1-2.4-1.6C543.1,31.3,541.1,30,541.1,29.9L541.1,29.9z"/>
		<path fill="#FFFFFF" d="M585.2,54.4c0,0,2.2,0.9,5.5,2.3c0.8,0.3,1.7,0.7,2.6,1.1c0.9,0.4,2,0.7,3,1.1c1,0.4,2.1,0.8,3.2,1.2
			c1.1,0.4,2.2,0.9,3.3,1.2c2.2,0.8,4.5,1.5,6.6,2.3c1,0.4,2.1,0.7,3,1c1,0.3,1.9,0.6,2.7,0.9c3.4,1.1,5.6,1.8,5.6,1.8l0,0.1
			c0,0-2.3-0.7-5.6-1.8c-0.8-0.3-1.8-0.6-2.7-0.9c-1-0.3-2-0.6-3-1c-2.1-0.7-4.3-1.5-6.6-2.3c-1.1-0.4-2.2-0.8-3.3-1.2
			c-1.1-0.4-2.2-0.8-3.2-1.2c-1-0.4-2-0.8-3-1.1c-0.9-0.4-1.8-0.8-2.6-1.1C587.3,55.3,585.2,54.4,585.2,54.4L585.2,54.4z"/>
		<path fill="#FFFFFF" d="M632.9,70.7c0,0,2.3,0.6,5.8,1.4c1.7,0.4,3.7,0.9,5.9,1.4c1.1,0.3,2.2,0.5,3.3,0.8
			c1.1,0.3,2.3,0.6,3.4,0.8c9.3,1.8,18.6,3.7,18.6,3.7l0,0.1c0,0-9.3-1.8-18.6-3.7c-1.2-0.2-2.3-0.5-3.4-0.8
			c-1.1-0.3-2.2-0.5-3.3-0.8c-2.2-0.5-4.2-1-5.9-1.4c-3.4-0.8-5.7-1.4-5.7-1.4L632.9,70.7z"/>
		<path fill="#FFFFFF" d="M682.3,80.7c0,0,2.3,0.3,5.9,0.8c1.8,0.2,3.8,0.5,6,0.8c1.1,0.1,2.2,0.3,3.4,0.4c1.2,0.1,2.3,0.3,3.5,0.4
			c9.4,0.9,18.8,1.9,18.8,1.9l0,0.2c0,0-9.4-0.9-18.8-1.9c-1.2-0.1-2.3-0.3-3.5-0.4c-1.2-0.2-2.3-0.3-3.4-0.5
			c-2.2-0.3-4.3-0.6-6-0.8c-3.5-0.5-5.9-0.8-5.9-0.8L682.3,80.7z"/>
		<path fill="#FFFFFF" d="M732.5,86c0,0,2.4,0.1,5.9,0.3c1.8,0.1,3.8,0.2,6.1,0.3c1.1,0.1,2.3,0.1,3.4,0.2c1.2,0,2.3,0.1,3.5,0.2
			c9.5,0.2,18.9,0.4,18.9,0.4l0,0.2c0,0-9.5-0.2-18.9-0.4c-1.2,0-2.4-0.1-3.5-0.2c-1.2-0.1-2.3-0.1-3.4-0.2
			c-2.2-0.1-4.3-0.2-6.1-0.3c-3.5-0.2-5.9-0.3-5.9-0.3L732.5,86z"/>
		<path fill="#FFFFFF" d="M783,87.3c0,0,9.5-0.2,18.9-0.4c9.5-0.4,18.9-0.8,18.9-0.8l0,0.3c0,0-9.5,0.4-18.9,0.7
			c-9.5,0.2-18.9,0.3-18.9,0.3L783,87.3z"/>
		<path fill="#FFFFFF" d="M833.4,85.5l0.2,0h0h0c1.6,0.1,3.1,0.3,4.7,0.5c1.6,0.2,3.1,0.5,4.6,0.9c0.8,0.2,1.5,0.4,2.2,0.9
			c0.2,0.1,0.3,0.3,0.4,0.5c0.1,0.2,0.1,0.5,0,0.7c-0.2,0.4-0.6,0.6-0.9,0.8c-0.7,0.4-1.4,0.7-2.2,1c-0.7,0.3-1.5,0.5-2.3,0.7
			c-3,0.8-6.1,1.4-9.2,2c-3.1,0.6-6.2,1.1-9.3,1.6l0-0.3c3.1-0.5,6.2-1,9.3-1.5c3.1-0.6,6.2-1.2,9.2-2c0.8-0.2,1.5-0.4,2.2-0.7
			c0.7-0.3,1.5-0.5,2.1-0.9c0.3-0.2,0.6-0.4,0.8-0.7c0.2-0.3,0-0.6-0.3-0.8c-0.6-0.4-1.4-0.7-2.1-0.9c-1.5-0.4-3-0.6-4.6-0.9
			c-1.5-0.2-3.1-0.4-4.7-0.5h0l-0.2,0L833.4,85.5z"/>
		<polygon fill="#FFFFFF" points="809.3,96.7 771.7,101.1 771.7,100.7 809.3,96.4 		"/>
		<path fill="#FFFFFF" d="M759.1,102.3c0,0-2.4,0.2-5.9,0.6c-3.5,0.3-8.3,0.7-13,1.1c-9.4,0.8-18.9,1.6-18.9,1.6l0-0.4
			c0,0,9.4-0.8,18.9-1.6c4.7-0.4,9.4-0.8,13-1.1c3.5-0.3,5.9-0.6,5.9-0.6L759.1,102.3z"/>
		<polygon fill="#FFFFFF" points="708.8,106.5 671,108.6 671,108.3 708.8,106.2 		"/>
		<polygon fill="#FFFFFF" points="658.4,109.2 620.6,110.2 620.6,109.8 658.4,108.8 		"/>
		<polygon fill="#FFFFFF" points="607.9,110.3 570.1,110.2 570.1,109.8 607.9,109.9 		"/>
		<polygon fill="#FFFFFF" points="557.4,110 519.6,108.7 519.6,108.2 557.5,109.6 		"/>
		<path fill="#FFFFFF" d="M507,107.9c0,0-2.4-0.2-5.9-0.4c-1.8-0.1-3.8-0.3-6-0.4c-2.2-0.2-4.6-0.4-6.9-0.6
			c-1.2-0.1-2.4-0.2-3.5-0.3c-1.2-0.1-2.3-0.3-3.4-0.4c-1.1-0.1-2.2-0.3-3.2-0.4c-1-0.1-2-0.2-2.8-0.4c-3.5-0.5-5.9-0.9-5.9-0.9
			l0.1-0.4c0,0,2.3,0.4,5.8,0.9c0.9,0.1,1.8,0.2,2.8,0.4c1,0.1,2.1,0.2,3.2,0.4c1.1,0.1,2.2,0.3,3.4,0.4c1.2,0.1,2.3,0.2,3.5,0.3
			c2.4,0.2,4.7,0.4,6.9,0.6c2.2,0.2,4.3,0.3,6,0.4c3.5,0.3,5.9,0.4,5.9,0.4L507,107.9z"/>
		<path fill="#FFFFFF" d="M457,101.7c0,0-0.6,0-1.6-0.1c-1-0.1-2.5-0.1-4.3-0.1c-1.8,0-3.8,0.1-6,0.4c-2.2,0.3-4.5,0.6-6.8,1.3
			c-1.1,0.3-2.2,0.8-3.2,1.4c-0.5,0.3-0.9,0.6-1.2,1.1c-0.3,0.4-0.5,0.9-0.4,1.4c0.2,1,1,1.8,1.8,2.4c0.8,0.6,1.6,1.1,2.4,1.6
			c1.5,0.9,2.9,1.4,3.8,1.8c1,0.4,1.5,0.6,1.5,0.6l-0.2,0.4c0,0-0.6-0.2-1.5-0.6c-1-0.4-2.3-1-3.9-1.9c-0.8-0.4-1.6-0.9-2.4-1.6
			c-0.4-0.3-0.8-0.7-1.2-1.1c-0.3-0.4-0.7-0.9-0.8-1.6c-0.1-0.6,0.1-1.3,0.5-1.8c0.4-0.5,0.9-0.9,1.4-1.2c1-0.6,2.2-1.1,3.3-1.4
			c2.3-0.7,4.6-1.1,6.9-1.3c2.2-0.3,4.3-0.4,6.1-0.4c1.8,0,3.3,0,4.3,0.1c1,0.1,1.6,0.1,1.6,0.1L457,101.7z"/>
		<path fill="#FFFFFF" d="M454.9,117.4c0,0,2.3,0.6,5.7,1.5c0.9,0.2,1.8,0.5,2.8,0.7c1,0.2,2,0.5,3.1,0.7s2.2,0.5,3.3,0.8
			c1.1,0.3,2.3,0.5,3.4,0.7c2.3,0.5,4.6,1,6.8,1.4c1.1,0.2,2.1,0.4,3.1,0.6c1,0.2,1.9,0.4,2.8,0.5c3.5,0.7,5.8,1.1,5.8,1.1l-0.1,0.5
			c0,0-2.3-0.4-5.8-1.1c-0.9-0.2-1.8-0.3-2.8-0.5c-1-0.2-2.1-0.4-3.1-0.6c-2.2-0.5-4.5-0.9-6.8-1.4c-1.2-0.3-2.3-0.5-3.5-0.7
			c-1.1-0.3-2.3-0.5-3.3-0.8c-1.1-0.3-2.1-0.5-3.1-0.7c-1-0.2-1.9-0.5-2.8-0.7c-3.4-0.9-5.7-1.5-5.7-1.5L454.9,117.4z"/>
		<polygon fill="#FFFFFF" points="504.3,127.7 541.7,133.4 541.6,133.9 504.2,128.2 		"/>
		<path fill="#FFFFFF" d="M554.2,135.1c0,0,0.6,0.1,1.6,0.2c1,0.1,2.5,0.3,4.2,0.5c3.5,0.4,8.2,1,12.9,1.5
			c9.4,0.9,18.8,1.8,18.8,1.8l0,0.5c0,0-9.4-0.9-18.8-1.8c-4.7-0.6-9.4-1.1-12.9-1.5c-1.8-0.2-3.2-0.4-4.3-0.5
			c-1-0.1-1.6-0.2-1.6-0.2L554.2,135.1z"/>
		<path fill="#FFFFFF" d="M604.3,140.2c0,0,9.4,0.6,18.9,1.2c9.4,0.4,18.9,0.9,18.9,0.9l0,0.5c0,0-9.4-0.4-18.9-0.9
			c-9.4-0.6-18.9-1.2-18.9-1.2L604.3,140.2z"/>
		<polygon fill="#FFFFFF" points="654.6,142.7 692.5,143.4 692.5,143.9 654.6,143.2 		"/>
		<polygon fill="#FFFFFF" points="705.1,143.4 742.9,143.1 742.9,143.6 705.1,143.9 		"/>
		<polygon fill="#FFFFFF" points="755.5,142.8 793.4,141.7 793.4,142.3 755.6,143.4 		"/>
		<polygon fill="#FFFFFF" points="806,141.2 843.8,139.5 843.8,140 806,141.8 		"/>
		<polygon fill="#FFFFFF" points="856.4,138.8 894.2,136.5 894.2,137.1 856.4,139.4 		"/>
		<polygon fill="#FFFFFF" points="906.8,135.7 944.6,133 944.6,133.6 906.8,136.3 		"/>
		<polygon fill="#FFFFFF" points="957.2,132.1 994.9,129.2 995,129.8 957.2,132.7 		"/>
		<polygon fill="#FFFFFF" points="1007.5,128.2 1045.3,125.6 1045.3,126.2 1007.5,128.8 		"/>
		<path fill="#FFFFFF" d="M1057.7,126.3c0,0,0.1,0.1,0.4,0.1c0.3,0.1,0.6,0.2,1.1,0.3c0.5,0.1,1.1,0.2,1.8,0.3
			c0.7,0.1,1.5,0.1,2.4,0.2c3.5,0.2,8.3,0.2,13,0.2c9.5,0,18.9,0,18.9,0l0,0.6c0,0-9.5,0-18.9,0c-4.7,0-9.5,0-13-0.2
			c-0.9,0-1.7-0.1-2.4-0.2c-0.7-0.1-1.3-0.2-1.9-0.3c-0.5-0.1-1-0.2-1.2-0.3c-0.3-0.1-0.4-0.1-0.4-0.1L1057.7,126.3z"/>
		<path fill="#FFFFFF" d="M1108,127.5c0,0,0.6,0,1.6,0c1,0,2.5,0.1,4.3,0.1c1.8,0.1,3.8,0.1,6.1,0.3c1.1,0.1,2.3,0.1,3.4,0.2
			c1.2,0.1,2.3,0.2,3.5,0.2c1.2,0.1,2.4,0.2,3.5,0.3c1.2,0.1,2.3,0.2,3.4,0.3c1.1,0.1,2.2,0.2,3.2,0.4c1,0.1,2,0.3,2.8,0.4
			c0.9,0.1,1.7,0.2,2.4,0.4c0.7,0.1,1.3,0.2,1.8,0.3c1,0.2,1.6,0.3,1.6,0.3l-0.1,0.6c0,0-0.6-0.1-1.6-0.3c-0.5-0.1-1.1-0.2-1.8-0.3
			c-0.7-0.1-1.5-0.2-2.4-0.4c-0.9-0.1-1.8-0.3-2.8-0.4c-1-0.1-2.1-0.2-3.2-0.4c-1.1-0.1-2.2-0.2-3.4-0.3c-1.2-0.1-2.3-0.2-3.5-0.3
			c-1.2-0.1-2.4-0.2-3.5-0.2c-1.2-0.1-2.3-0.1-3.4-0.2c-2.2-0.1-4.3-0.2-6.1-0.3c-1.8-0.1-3.3-0.1-4.3-0.1c-1,0-1.6,0-1.6,0
			L1108,127.5z"/>
		<path fill="#FFFFFF" d="M1157.8,134.5c0,0,0.1,0.1,0.4,0.2c0.2,0.1,0.6,0.3,1.1,0.6c0.5,0.3,1,0.6,1.6,1c0.6,0.4,1.3,0.9,1.9,1.5
			c0.7,0.6,1.3,1.4,1.9,2.3c0.5,0.9,1,2,1.1,3.1c0.1,0.6,0.1,1.2,0,1.8c-0.1,0.6-0.3,1.2-0.6,1.7c-0.6,1.1-1.5,1.9-2.4,2.7
			c-1.9,1.5-4,2.7-6,3.6c-2,1-4,1.7-5.6,2.3c-1.7,0.6-3.1,1.1-4.1,1.4c-1,0.3-1.6,0.5-1.6,0.5l-0.2-0.6c0,0,0.6-0.2,1.5-0.5
			c1-0.3,2.4-0.8,4-1.4c1.7-0.6,3.6-1.4,5.6-2.3c2-1,4.1-2.1,5.9-3.6c0.9-0.7,1.7-1.6,2.3-2.5c0.3-0.5,0.5-1,0.6-1.5
			c0.1-0.5,0.1-1,0-1.6c-0.1-1.1-0.5-2-1-2.9c-0.5-0.8-1.1-1.6-1.8-2.2c-0.6-0.6-1.3-1.1-1.9-1.5c-0.6-0.4-1.1-0.7-1.6-1
			c-0.4-0.2-0.8-0.4-1.1-0.5c-0.2-0.1-0.4-0.2-0.4-0.2L1157.8,134.5z"/>
		<path fill="#FFFFFF" d="M1133.2,160.5c0,0-2.3,0.5-5.8,1.3c-0.9,0.2-1.8,0.4-2.8,0.6c-1,0.2-2.1,0.4-3.1,0.6
			c-1.1,0.2-2.2,0.4-3.4,0.7c-1.1,0.2-2.3,0.5-3.5,0.7c-2.3,0.4-4.7,0.8-6.9,1.2c-2.2,0.4-4.2,0.7-6,1c-3.5,0.6-5.8,0.9-5.8,0.9
			l-0.1-0.6c0,0,2.3-0.4,5.8-0.9c1.8-0.3,3.8-0.6,6-1c2.2-0.4,4.5-0.8,6.8-1.2c1.2-0.2,2.3-0.4,3.5-0.7c1.1-0.2,2.3-0.4,3.4-0.7
			c1.1-0.2,2.1-0.4,3.1-0.6c1-0.2,1.9-0.4,2.8-0.6c3.5-0.8,5.8-1.3,5.8-1.3L1133.2,160.5z"/>
		<polygon fill="#FFFFFF" points="1083.5,169.3 1046,174 1045.9,173.4 1083.4,168.8 		"/>
		<polygon fill="#FFFFFF" points="1033.4,175.3 995.7,178.8 995.7,178.3 1033.3,174.8 		"/>
		<polygon fill="#FFFFFF" points="983.1,179.9 945.4,182.7 945.3,182.1 983.1,179.3 		"/>
		<path fill="#FFFFFF" d="M932.8,183.5c0,0-2.4,0.1-5.9,0.4c-0.9,0.1-1.9,0.1-2.9,0.1c-1,0-2.1,0.1-3.2,0.1
			c-2.2,0.1-4.6,0.1-6.9,0.2c-9.5,0-18.9,0-18.9,0l0-0.5c0,0,9.5,0,18.9,0c2.4-0.1,4.7-0.1,6.9-0.2c1.1,0,2.2-0.1,3.2-0.1
			c1,0,2,0,2.9-0.1c3.5-0.2,5.9-0.4,5.9-0.4L932.8,183.5z"/>
		<polygon fill="#FFFFFF" points="882.3,184.1 844.4,183.3 844.4,182.8 882.3,183.6 		"/>
		<polygon fill="#FFFFFF" points="831.8,183 794,181.8 794,181.4 831.8,182.5 		"/>
		<polygon fill="#FFFFFF" points="781.4,181.4 743.6,180.1 743.6,179.7 781.4,181 		"/>
		<polygon fill="#FFFFFF" points="731,179.7 693.2,178.2 693.2,177.8 731,179.2 		"/>
		<polygon fill="#FFFFFF" points="680.6,177.7 642.7,176.1 642.7,175.7 680.6,177.3 		"/>
		<polygon fill="#FFFFFF" points="630.1,175.6 592.3,173.9 592.3,173.5 630.1,175.2 		"/>
		<polygon fill="#FFFFFF" points="579.7,173.2 541.9,171.3 541.9,170.9 579.7,172.8 		"/>
		<polygon fill="#FFFFFF" points="529.3,170.6 491.5,168.1 491.5,167.7 529.3,170.2 		"/>
		<polygon fill="#FFFFFF" points="478.9,167 441.2,163.9 441.2,163.5 479,166.6 		"/>
		<polygon fill="#FFFFFF" points="428.6,162.9 390.8,160.2 390.9,159.9 428.6,162.6 		"/>
		<polygon fill="#FFFFFF" points="378.3,159.3 340.5,156.7 340.5,156.4 378.3,159 		"/>
		<polygon fill="#FFFFFF" points="327.9,155.9 290.2,153.3 290.2,153 327.9,155.5 		"/>
		<polygon fill="#FFFFFF" points="277.6,152.5 239.8,150 239.8,149.7 277.6,152.2 		"/>
		<polygon fill="#FFFFFF" points="227.2,149.2 189.4,146.7 189.4,146.5 227.2,148.9 		"/>
		<polygon fill="#FFFFFF" points="176.8,145.9 139.1,143.4 139.1,143.2 176.9,145.7 		"/>
		<polygon fill="#FFFFFF" points="126.5,142.6 88.7,140.1 88.7,140 126.5,142.4 		"/>
		<polygon fill="#FFFFFF" points="76.1,139.3 38.3,136.9 38.3,136.8 76.1,139.2 		"/>
		<polygon fill="#FFFFFF" points="25.7,136.1 -12.1,133.7 -12.1,133.7 25.7,136.1 		"/>
	</g>
</g>
</svg>
