<?xml version="1.0" encoding="utf-8"?>
<!-- Generator: Adobe Illustrator 18.1.1, SVG Export Plug-In . SVG Version: 6.00 Build 0)  -->
<svg version="1.1" id="Layer_1" xmlns="http://www.w3.org/2000/svg" xmlns:xlink="http://www.w3.org/1999/xlink" x="0px" y="0px"
	 viewBox="0 0 1169.7 232.4" enable-background="new 0 0 1169.7 232.4" xml:space="preserve">
<g>
	<defs>
		<rect id="SVGID_3_" x="1" y="-566.6" width="1280" height="800"/>
	</defs>
	<clipPath id="SVGID_2_">
		<use xlink:href="#SVGID_3_"  overflow="visible"/>
	</clipPath>
	<g clip-path="url(#SVGID_2_)">
		<path fill="#5E3747" d="M70.4,134.4c-3.5,0-6.3,2.8-6.3,6.3v123.5c2.1-0.6,4.2-1.3,6.3-2V134.4z"/>
		<path fill="#824B61" d="M70.4,134.4v127.8c2.1-0.7,4.2-1.4,6.3-2.1V140.7C76.7,137.2,73.9,134.4,70.4,134.4z"/>
	</g>
	<g clip-path="url(#SVGID_2_)">
		<path fill="#5E3747" d="M105.2,133.7c-2.6,0-4.8,2.1-4.8,4.8v93.7c1.6-0.5,3.2-1,4.8-1.5V133.7z"/>
		<path fill="#824B61" d="M105.2,133.7v97c1.6-0.5,3.2-1.1,4.8-1.6v-90.6C109.9,135.8,107.8,133.7,105.2,133.7z"/>
		<path fill="#854D63" d="M100.4,232.2v376.4c0,2.6,2.1,4.8,4.8,4.8V230.7C103.5,231.2,102,231.7,100.4,232.2z"/>
		<path fill="#C5718E" d="M105.2,613.3c2.6,0,4.8-2.1,4.8-4.8V229.1c-1.6,0.6-3.2,1.1-4.8,1.6V613.3z"/>
	</g>
	<g clip-path="url(#SVGID_2_)">
		<g>
			<path fill="#5E3747" d="M1150.3,154.5c1.8,0,3.3,1.5,3.3,3.3v65.1c-1.1-0.3-2.2-0.7-3.3-1.1V154.5z"/>
			<path fill="#824B61" d="M1150.3,154.5v67.3c-1.1-0.4-2.2-0.7-3.3-1.1v-62.9C1147,156,1148.5,154.5,1150.3,154.5z"/>
			<path fill="#854D63" d="M1153.7,222.9v261.3c0,1.8-1.5,3.3-3.3,3.3V221.8C1151.5,222.2,1152.6,222.6,1153.7,222.9z"/>
			<path fill="#C5718E" d="M1150.3,487.5c-1.8,0-3.3-1.5-3.3-3.3V220.7c1.1,0.4,2.2,0.8,3.3,1.1V487.5z"/>
		</g>
		<g>
			<path fill="#5E3747" d="M1134.5,154.2c1.4,0,2.5,1.1,2.5,2.5V206c-0.8-0.3-1.7-0.5-2.5-0.8V154.2z"/>
			<path fill="#824B61" d="M1134.5,154.2v51.1c-0.8-0.3-1.7-0.6-2.5-0.8v-47.7C1132,155.3,1133.2,154.2,1134.5,154.2z"/>
			<path fill="#854D63" d="M1137.1,206v198.2c0,1.4-1.1,2.5-2.5,2.5V205.2C1135.4,205.5,1136.2,205.8,1137.1,206z"/>
			<path fill="#C5718E" d="M1134.5,406.7c-1.4,0-2.5-1.1-2.5-2.5V204.4c0.8,0.3,1.7,0.6,2.5,0.8V406.7z"/>
		</g>
	</g>
	<g clip-path="url(#SVGID_2_)">
		<g>
			<path fill="#5E3747" d="M1068.4,124.6c-1.8,0-3.3,1.5-3.3,3.3v65.1c1.1-0.3,2.2-0.7,3.3-1.1V124.6z"/>
			<path fill="#824B61" d="M1068.4,124.6v67.3c1.1-0.4,2.2-0.7,3.3-1.1v-62.9C1071.7,126.1,1070.2,124.6,1068.4,124.6z"/>
			<path fill="#854D63" d="M1065.1,192.9v261.3c0,1.8,1.5,3.3,3.3,3.3V191.9C1067.3,192.3,1066.2,192.6,1065.1,192.9z"/>
			<path fill="#C5718E" d="M1068.4,457.6c1.8,0,3.3-1.5,3.3-3.3V190.8c-1.1,0.4-2.2,0.8-3.3,1.1V457.6z"/>
		</g>
		<g>
			<path fill="#5E3747" d="M1084.2,124.2c-1.4,0-2.5,1.1-2.5,2.5v49.3c0.8-0.3,1.7-0.5,2.5-0.8V124.2z"/>
			<path fill="#824B61" d="M1084.2,124.2v51.1c0.8-0.3,1.7-0.6,2.5-0.9v-47.7C1086.7,125.3,1085.6,124.2,1084.2,124.2z"/>
			<path fill="#854D63" d="M1081.7,176.1v198.2c0,1.4,1.1,2.5,2.5,2.5V175.3C1083.3,175.6,1082.5,175.8,1081.7,176.1z"/>
			<path fill="#C5718E" d="M1084.2,376.8c1.4,0,2.5-1.1,2.5-2.5V174.4c-0.8,0.3-1.7,0.6-2.5,0.9V376.8z"/>
		</g>
	</g>
	<g clip-path="url(#SVGID_2_)">
		<g>
			<path fill="#5E3747" d="M840,185.8c-1.9,0-3.5,1.5-3.5,3.4v67.8c1.1-0.3,2.3-0.7,3.5-1.1V185.8z"/>
			<path fill="#824B61" d="M840,185.8V256c1.1-0.4,2.3-0.8,3.4-1.2v-65.5C843.4,187.4,841.9,185.8,840,185.8z"/>
		</g>
		<g>
			<path fill="#5E3747" d="M856.4,185.4c-1.4,0-2.6,1.2-2.6,2.6v51.4c0.9-0.3,1.7-0.5,2.6-0.8V185.4z"/>
			<path fill="#824B61" d="M856.4,185.4v53.2c0.9-0.3,1.7-0.6,2.6-0.9v-49.7C859,186.6,857.9,185.4,856.4,185.4z"/>
		</g>
	</g>
	<g clip-path="url(#SVGID_2_)">
		<g>
			<path fill="#5E3747" d="M790.2,142.9c-1,0-1.8,1.6-1.8,3.6v70.6c0.6-0.4,1.2-0.7,1.8-1.1V142.9z"/>
			<path fill="#824B61" d="M790.2,142.9V216c0.6-0.4,1.2-0.8,1.8-1.2v-68.3C791.9,144.5,791.1,142.9,790.2,142.9z"/>
			<path fill="#854D63" d="M788.4,217.2v283.8c0,2,0.8,3.6,1.8,3.6V216C789.5,216.4,789,216.8,788.4,217.2z"/>
			<path fill="#C5718E" d="M790.2,504.5c1,0,1.8-1.6,1.8-3.6V214.8c-0.6,0.4-1.2,0.8-1.8,1.2V504.5z"/>
		</g>
		<g>
			<path fill="#5E3747" d="M798.6,142.5c-0.7,0-1.3,1.2-1.3,2.7v53.6c0.4-0.3,0.9-0.6,1.3-0.9V142.5z"/>
			<path fill="#824B61" d="M798.6,142.5V198c0.4-0.3,0.9-0.6,1.3-0.9v-51.8C800,143.7,799.4,142.5,798.6,142.5z"/>
			<path fill="#854D63" d="M797.3,198.8v215.2c0,1.5,0.6,2.7,1.3,2.7V198C798.2,198.3,797.7,198.6,797.3,198.8z"/>
			<path fill="#C5718E" d="M798.6,416.8c0.7,0,1.3-1.2,1.3-2.7V197c-0.5,0.3-0.9,0.6-1.3,0.9V416.8z"/>
		</g>
	</g>
	<g clip-path="url(#SVGID_2_)">
		<g>
			<path fill="#5E3747" d="M638.7,141.2c-1,0-1.8,1.6-1.8,3.6v70.6c0.6-0.4,1.2-0.7,1.8-1.1V141.2z"/>
			<path fill="#824B61" d="M638.7,141.2v73.1c0.6-0.4,1.2-0.8,1.8-1.2v-68.3C640.5,142.9,639.7,141.2,638.7,141.2z"/>
			<path fill="#854D63" d="M637,215.5v283.8c0,2,0.8,3.6,1.8,3.6V214.3C638.1,214.7,637.5,215.1,637,215.5z"/>
			<path fill="#C5718E" d="M638.7,502.8c1,0,1.8-1.6,1.8-3.6V213.1c-0.6,0.4-1.2,0.8-1.8,1.2V502.8z"/>
		</g>
		<g>
			<path fill="#5E3747" d="M647.2,140.9c-0.7,0-1.4,1.2-1.4,2.7v53.6c0.4-0.3,0.9-0.6,1.4-0.9V140.9z"/>
			<path fill="#824B61" d="M647.2,140.9v55.4c0.4-0.3,0.9-0.6,1.3-0.9v-51.8C648.6,142.1,648,140.9,647.2,140.9z"/>
			<path fill="#854D63" d="M645.9,197.2v215.2c0,1.5,0.6,2.7,1.4,2.7V196.3C646.8,196.6,646.3,196.9,645.9,197.2z"/>
			<path fill="#C5718E" d="M647.2,415.1c0.7,0,1.3-1.2,1.3-2.7v-217c-0.5,0.3-0.9,0.6-1.3,0.9V415.1z"/>
		</g>
	</g>
	<g clip-path="url(#SVGID_2_)">
		<g>
			<path fill="#5E3747" d="M506.5,129c-0.7,0-1.3,1.5-1.3,3.5v68c0.4-0.4,0.9-0.7,1.3-1.1V129z"/>
			<path fill="#824B61" d="M506.5,129v70.4c0.4-0.4,0.9-0.8,1.3-1.2v-65.7C507.8,130.6,507.2,129,506.5,129z"/>
			<path fill="#854D63" d="M505.2,200.5v273.1c0,1.9,0.6,3.5,1.3,3.5V199.4C506.1,199.8,505.6,200.2,505.2,200.5z"/>
			<path fill="#C5718E" d="M506.5,477.1c0.7,0,1.3-1.5,1.3-3.5V198.2c-0.4,0.4-0.9,0.8-1.3,1.2V477.1z"/>
		</g>
		<g>
			<path fill="#5E3747" d="M512.9,128.7c-0.6,0-1,1.2-1,2.6v51.6c0.3-0.3,0.7-0.5,1-0.8V128.7z"/>
			<path fill="#824B61" d="M512.9,128.7V182c0.3-0.3,0.7-0.6,1-0.9v-49.9C513.9,129.8,513.4,128.7,512.9,128.7z"/>
			<path fill="#854D63" d="M511.9,182.9V390c0,1.4,0.5,2.6,1,2.6V182C512.5,182.3,512.2,182.6,511.9,182.9z"/>
			<path fill="#C5718E" d="M512.9,392.7c0.6,0,1-1.2,1-2.6V181.1c-0.3,0.3-0.7,0.6-1,0.9V392.7z"/>
		</g>
	</g>
	<g clip-path="url(#SVGID_2_)">
		<g>
			<path fill="#5E3747" d="M425.9,104.5c-0.7,0-1.3,1.5-1.3,3.5v68c0.4-0.4,0.9-0.7,1.3-1.1V104.5z"/>
			<path fill="#824B61" d="M425.9,104.5v70.4c0.4-0.4,0.9-0.8,1.3-1.2V108C427.2,106.1,426.6,104.5,425.9,104.5z"/>
			<path fill="#854D63" d="M424.5,176v273.1c0,1.9,0.6,3.5,1.3,3.5V174.9C425.4,175.3,425,175.7,424.5,176z"/>
			<path fill="#C5718E" d="M425.9,452.6c0.7,0,1.3-1.5,1.3-3.5V173.7c-0.4,0.4-0.9,0.8-1.3,1.2V452.6z"/>
		</g>
		<g>
			<path fill="#5E3747" d="M432.2,104.2c-0.6,0-1,1.2-1,2.6v51.6c0.3-0.3,0.7-0.5,1-0.8V104.2z"/>
			<path fill="#824B61" d="M432.2,104.2v53.4c0.3-0.3,0.7-0.6,1-0.9v-49.9C433.2,105.4,432.8,104.2,432.2,104.2z"/>
			<path fill="#854D63" d="M431.2,158.4v207.2c0,1.4,0.5,2.6,1,2.6V157.5C431.9,157.8,431.5,158.1,431.2,158.4z"/>
			<path fill="#C5718E" d="M432.2,368.2c0.6,0,1-1.2,1-2.6V156.7c-0.3,0.3-0.7,0.6-1,0.9V368.2z"/>
		</g>
	</g>
	<g clip-path="url(#SVGID_2_)">
		<g>
			<path fill="#5E3747" d="M480.8,97.3c-0.6,0-1,1.5-1,3.3v65.6c0.3-0.3,0.7-0.7,1-1.1V97.3z"/>
			<path fill="#824B61" d="M480.8,97.3v67.9c0.3-0.4,0.7-0.7,1-1.1v-63.4C481.8,98.8,481.3,97.3,480.8,97.3z"/>
			<path fill="#854D63" d="M479.8,166.2v263.6c0,1.8,0.5,3.3,1,3.3v-268C480.4,165.5,480.1,165.9,479.8,166.2z"/>
			<path fill="#C5718E" d="M480.8,433.1c0.6,0,1-1.5,1-3.3V164c-0.3,0.4-0.7,0.8-1,1.1V433.1z"/>
		</g>
		<g>
			<path fill="#5E3747" d="M485.6,96.9c-0.4,0-0.8,1.1-0.8,2.5v49.8c0.3-0.3,0.5-0.5,0.8-0.8V96.9z"/>
			<path fill="#824B61" d="M485.6,96.9v51.5c0.3-0.3,0.5-0.6,0.8-0.9V99.4C486.4,98,486.1,96.9,485.6,96.9z"/>
			<path fill="#854D63" d="M484.9,149.2v199.9c0,1.4,0.3,2.5,0.8,2.5V148.4C485.4,148.7,485.1,149,484.9,149.2z"/>
			<path fill="#C5718E" d="M485.6,351.7c0.4,0,0.8-1.1,0.8-2.5V147.5c-0.3,0.3-0.5,0.6-0.8,0.9V351.7z"/>
		</g>
	</g>
	<g clip-path="url(#SVGID_2_)">
		<g>
			<path fill="#5E3747" d="M570.8,107.8c-0.6,0-1,1.5-1,3.3v65.6c0.3-0.3,0.7-0.7,1-1.1V107.8z"/>
			<path fill="#824B61" d="M570.8,107.8v67.9c0.3-0.4,0.7-0.7,1-1.1v-63.4C571.8,109.3,571.3,107.8,570.8,107.8z"/>
			<path fill="#854D63" d="M569.8,176.8v263.6c0,1.8,0.5,3.3,1,3.3v-268C570.4,176.1,570.1,176.5,569.8,176.8z"/>
			<path fill="#C5718E" d="M570.8,443.7c0.6,0,1-1.5,1-3.3V174.6c-0.3,0.4-0.7,0.8-1,1.1V443.7z"/>
		</g>
		<g>
			<path fill="#5E3747" d="M575.6,107.5c-0.4,0-0.8,1.1-0.8,2.5v49.8c0.3-0.3,0.5-0.5,0.8-0.8V107.5z"/>
			<path fill="#824B61" d="M575.6,107.5V159c0.3-0.3,0.5-0.6,0.8-0.9V110C576.4,108.6,576.1,107.5,575.6,107.5z"/>
			<path fill="#854D63" d="M574.9,159.8v199.9c0,1.4,0.3,2.5,0.8,2.5V159C575.4,159.3,575.1,159.5,574.9,159.8z"/>
			<path fill="#C5718E" d="M575.6,362.2c0.4,0,0.8-1.1,0.8-2.5V158.1c-0.3,0.3-0.5,0.6-0.8,0.9V362.2z"/>
		</g>
	</g>
	<g clip-path="url(#SVGID_2_)">
		<g>
			<path fill="#5E3747" d="M700.5,102.6c-0.6,0-1,1.5-1,3.3v65.6c0.3-0.3,0.7-0.7,1-1.1V102.6z"/>
			<path fill="#824B61" d="M700.5,102.6v67.9c0.3-0.4,0.7-0.7,1-1.1v-63.4C701.5,104.1,701.1,102.6,700.5,102.6z"/>
			<path fill="#854D63" d="M699.5,171.6v263.6c0,1.8,0.5,3.3,1,3.3v-268C700.2,170.9,699.8,171.2,699.5,171.6z"/>
			<path fill="#C5718E" d="M700.5,438.5c0.6,0,1-1.5,1-3.3V169.4c-0.3,0.4-0.7,0.8-1,1.1V438.5z"/>
		</g>
		<g>
			<path fill="#5E3747" d="M705.4,102.3c-0.4,0-0.8,1.1-0.8,2.5v49.8c0.3-0.3,0.5-0.5,0.8-0.8V102.3z"/>
			<path fill="#824B61" d="M705.4,102.3v51.5c0.3-0.3,0.5-0.6,0.8-0.9v-48.1C706.1,103.4,705.8,102.3,705.4,102.3z"/>
			<path fill="#854D63" d="M704.6,154.6v199.9c0,1.4,0.3,2.5,0.8,2.5V153.7C705.1,154,704.9,154.3,704.6,154.6z"/>
			<path fill="#C5718E" d="M705.4,357c0.4,0,0.8-1.1,0.8-2.5V152.9c-0.3,0.3-0.5,0.6-0.8,0.9V357z"/>
		</g>
	</g>
	<g clip-path="url(#SVGID_2_)">
		<g>
			<path fill="#5E3747" d="M841.1,88.5c-0.6,0-1,1.5-1,3.3v65.6c0.3-0.3,0.7-0.7,1-1.1V88.5z"/>
			<path fill="#824B61" d="M841.1,88.5v67.9c0.3-0.4,0.7-0.7,1-1.1V91.8C842.1,90,841.7,88.5,841.1,88.5z"/>
			<path fill="#854D63" d="M840.1,157.5V421c0,1.8,0.5,3.3,1,3.3v-268C840.7,156.8,840.4,157.1,840.1,157.5z"/>
			<path fill="#C5718E" d="M841.1,424.4c0.6,0,1-1.5,1-3.3V155.3c-0.3,0.4-0.7,0.8-1,1.1V424.4z"/>
		</g>
		<g>
			<path fill="#5E3747" d="M846,88.1c-0.4,0-0.8,1.1-0.8,2.5v49.8c0.3-0.3,0.5-0.5,0.8-0.8V88.1z"/>
			<path fill="#824B61" d="M846,88.1v51.5c0.3-0.3,0.5-0.6,0.8-0.9V90.7C846.7,89.3,846.4,88.1,846,88.1z"/>
			<path fill="#854D63" d="M845.2,140.5v199.9c0,1.4,0.3,2.5,0.8,2.5V139.6C845.7,139.9,845.4,140.2,845.2,140.5z"/>
			<path fill="#C5718E" d="M846,342.9c0.4,0,0.8-1.1,0.8-2.5V138.8c-0.3,0.3-0.5,0.6-0.8,0.9V342.9z"/>
		</g>
	</g>
	<g clip-path="url(#SVGID_2_)">
		<g>
			<path fill="#5E3747" d="M770.2,87.1c-0.3,0-0.5,1.7-0.5,3.7v72.5c0.2-0.4,0.3-0.8,0.5-1.2V87.1z"/>
			<path fill="#824B61" d="M770.2,87.1v75c0.2-0.4,0.3-0.8,0.5-1.2V90.8C770.7,88.7,770.4,87.1,770.2,87.1z"/>
			<path fill="#854D63" d="M769.7,163.3v291.3c0,2,0.2,3.7,0.5,3.7V162.1C770,162.5,769.8,162.9,769.7,163.3z"/>
			<path fill="#C5718E" d="M770.2,458.3c0.3,0,0.5-1.7,0.5-3.7V160.9c-0.2,0.4-0.3,0.8-0.5,1.2V458.3z"/>
		</g>
		<g>
			<path fill="#5E3747" d="M772.5,86.7c-0.2,0-0.4,1.3-0.4,2.8v55c0.1-0.3,0.3-0.6,0.4-0.9V86.7z"/>
			<path fill="#824B61" d="M772.5,86.7v56.9c0.1-0.3,0.3-0.6,0.4-0.9V89.5C772.9,87.9,772.7,86.7,772.5,86.7z"/>
			<path fill="#854D63" d="M772.2,144.5v221c0,1.5,0.2,2.8,0.4,2.8V143.6C772.4,143.9,772.3,144.2,772.2,144.5z"/>
			<path fill="#C5718E" d="M772.5,368.3c0.2,0,0.4-1.3,0.4-2.8V142.7c-0.1,0.3-0.3,0.6-0.4,0.9V368.3z"/>
		</g>
	</g>
	<g clip-path="url(#SVGID_2_)">
		<g>
			<path fill="#5E3747" d="M698.4,79c-0.3,0-0.5,1.7-0.5,3.7v72.5c0.2-0.4,0.3-0.8,0.5-1.2V79z"/>
			<path fill="#824B61" d="M698.4,79v75c0.2-0.4,0.3-0.8,0.5-1.2V82.7C698.9,80.6,698.6,79,698.4,79z"/>
			<path fill="#854D63" d="M697.9,155.2v291.3c0,2,0.2,3.7,0.5,3.7V154C698.2,154.4,698,154.8,697.9,155.2z"/>
			<path fill="#C5718E" d="M698.4,450.2c0.3,0,0.5-1.7,0.5-3.7V152.8c-0.2,0.4-0.3,0.8-0.5,1.2V450.2z"/>
		</g>
		<g>
			<path fill="#5E3747" d="M700.7,78.6c-0.2,0-0.4,1.3-0.4,2.8v55c0.1-0.3,0.2-0.6,0.4-0.9V78.6z"/>
			<path fill="#824B61" d="M700.7,78.6v56.9c0.1-0.3,0.2-0.6,0.4-0.9V81.4C701.1,79.8,701,78.6,700.7,78.6z"/>
			<path fill="#854D63" d="M700.4,136.4v221c0,1.5,0.2,2.8,0.4,2.8V135.5C700.6,135.8,700.5,136.1,700.4,136.4z"/>
			<path fill="#C5718E" d="M700.7,360.2c0.2,0,0.4-1.3,0.4-2.8V134.6c-0.1,0.3-0.3,0.6-0.4,0.9V360.2z"/>
		</g>
	</g>
	<g clip-path="url(#SVGID_2_)">
		<g>
			<path fill="#5E3747" d="M646.8,71.6c-0.3,0-0.5,1.7-0.5,3.7v72.5c0.2-0.4,0.3-0.8,0.5-1.2V71.6z"/>
			<path fill="#824B61" d="M646.8,71.6v75c0.2-0.4,0.3-0.8,0.5-1.2V75.3C647.3,73.3,647.1,71.6,646.8,71.6z"/>
			<path fill="#854D63" d="M646.3,147.9v291.3c0,2,0.2,3.7,0.5,3.7V146.7C646.6,147.1,646.4,147.5,646.3,147.9z"/>
			<path fill="#C5718E" d="M646.8,442.9c0.3,0,0.5-1.7,0.5-3.7V145.4c-0.2,0.4-0.3,0.9-0.5,1.2V442.9z"/>
		</g>
		<g>
			<path fill="#5E3747" d="M649.2,71.3c-0.2,0-0.4,1.3-0.4,2.8v55c0.1-0.3,0.3-0.6,0.4-0.9V71.3z"/>
			<path fill="#824B61" d="M649.2,71.3v56.9c0.1-0.3,0.3-0.6,0.4-0.9V74C649.5,72.5,649.4,71.3,649.2,71.3z"/>
			<path fill="#854D63" d="M648.8,129.1v221c0,1.5,0.2,2.8,0.4,2.8V128.2C649,128.5,648.9,128.8,648.8,129.1z"/>
			<path fill="#C5718E" d="M649.2,352.8c0.2,0,0.4-1.3,0.4-2.8V127.2c-0.1,0.3-0.3,0.6-0.4,0.9V352.8z"/>
		</g>
	</g>
	<g clip-path="url(#SVGID_2_)">
		<g>
			<path fill="#5E3747" d="M572,44.4c-0.3,0-0.5,1.7-0.5,3.7v72.5c0.2-0.4,0.3-0.8,0.5-1.2V44.4z"/>
			<path fill="#824B61" d="M572,44.4v75c0.2-0.4,0.3-0.8,0.5-1.2V48.1C572.5,46.1,572.2,44.4,572,44.4z"/>
			<path fill="#854D63" d="M571.5,120.6V412c0,2,0.2,3.7,0.5,3.7V119.5C571.8,119.9,571.6,120.3,571.5,120.6z"/>
			<path fill="#C5718E" d="M572,415.7c0.3,0,0.5-1.7,0.5-3.7V118.2c-0.2,0.4-0.3,0.8-0.5,1.2V415.7z"/>
		</g>
		<g>
			<path fill="#5E3747" d="M574.3,44c-0.2,0-0.4,1.3-0.4,2.8v55c0.1-0.3,0.2-0.6,0.4-0.9V44z"/>
			<path fill="#824B61" d="M574.3,44v56.9c0.1-0.3,0.3-0.6,0.4-0.9V46.8C574.7,45.3,574.5,44,574.3,44z"/>
			<path fill="#854D63" d="M574,101.8v221c0,1.5,0.2,2.8,0.4,2.8V100.9C574.2,101.3,574.1,101.6,574,101.8z"/>
			<path fill="#C5718E" d="M574.3,325.6c0.2,0,0.4-1.3,0.4-2.8V100c-0.1,0.3-0.3,0.6-0.4,0.9V325.6z"/>
		</g>
	</g>
	<g clip-path="url(#SVGID_2_)">
		<g enable-background="new    ">
			<g enable-background="new    ">
				<defs>
					<path id="SVGID_5_" enable-background="new    " d="M815.8,87.8l-3.5,11.8c-6.1,0.3-13,0.7-21.1,1.2
						c-9.8,0.6-19.6,1.1-29.2,1.3c-34.4,0.7-67.3-1.4-98.1-6.4c-31.6-5.1-59-16.9-85.4-27.7c-45.4-18.6-68.1-41.9-69-42.7l3.5-11.8
						c0.9,0.8,23.5,24.1,69,42.7c26.5,10.8,53.9,22.6,85.4,27.7c30.8,5,63.6,7.1,98.1,6.4c9.6-0.2,19.3-0.6,29.2-1.3
						C802.8,88.5,809.7,88.1,815.8,87.8z"/>
				</defs>
				<clipPath id="SVGID_4_">
					<use xlink:href="#SVGID_5_"  overflow="visible"/>
				</clipPath>
				<path clip-path="url(#SVGID_4_)" fill="#824B61" d="M794.7,81c-9.8,0.6-19.6,1.1-29.2,1.3c-34.4,0.7-67.3-1.4-98.1-6.4
					c-31.6-5.1-59-16.9-85.4-27.7c-45.4-18.6-68.1-41.9-69-42.7l3.6,3.4c0.9,0.8,19.5,23.7,61,45.2c28.5,14.8,54.8,25.4,86.3,30.5
					c30.8,5,63.6,10.2,98.1,9.5c9.6-0.2,19.3-0.6,29.2-1.3c8.1-0.5,15-0.9,21.1-1.2l3.5-11.8C809.7,80.1,802.8,80.5,794.7,81z"/>
			</g>
			<g enable-background="new    ">
				<defs>
					<path id="SVGID_7_" enable-background="new    " d="M862.8,85.4c-1,3.4-2,6.7-3,10.1c-0.2,0.6-0.3,1.2-0.5,1.8
						c-0.2,0.5-0.4,1-0.7,1.5c-1.4,2.1-3.4,5.2-41.9,11c-25,3.8-57,7.3-90,9.9c-24,1.9-58.2,4.1-96.3,4.9
						c-43.6,0.9-92.3,0-136.6-5.3c-24.9-2.9-41.5-3.7-52.2-3.4c-5.9,0.1-10,0.5-12.6,1l3.5-11.8c2.7-0.5,6.7-0.9,12.6-1
						c10.7-0.2,27.3,0.5,52.2,3.4c44.3,5.2,93,6.2,136.6,5.3c38.1-0.8,72.4-3,96.3-4.9c33-2.6,65-6.1,90-9.9
						c38.5-5.8,40.5-8.9,41.9-11C862.4,86.4,862.6,85.9,862.8,85.4z"/>
				</defs>
				<clipPath id="SVGID_6_">
					<use xlink:href="#SVGID_7_"  overflow="visible"/>
				</clipPath>
				<g clip-path="url(#SVGID_6_)">
					<path fill="#91465F" d="M862.6,86l-3.3,5.7c-0.2,0.5-0.4,1-0.7,1.5c-0.3,0.5-0.7,1-1.4,1.6l3.5-11.8c0.8-0.6,1.1-1.1,1.4-1.6"
						/>
					<path fill="#824B61" d="M860.6,82.8l-3.5,11.8c-2.7,2-10.7,4.9-40.5,9.4c-25,3.8-57,7.3-90,9.9c-24,1.9-58.2,4.1-96.3,4.9
						c-43.6,0.9-92.3,0-136.6-5.3c-24.9-2.9-41.5-3.7-52.2-3.4c-5.9,0.1-10,0.5-12.6,1l3.5-11.8c2.7-0.5,6.7-0.9,12.6-1
						c10.7-0.2,27.3,0.5,52.2,3.4c44.3,5.2,93,6.2,136.6,5.3c38.1-0.8,72.4-3,96.3-4.9c33-2.6,65-6.1,90-9.9
						C850,87.7,857.9,84.8,860.6,82.8"/>
				</g>
			</g>
			<g enable-background="new    ">
				<defs>
					<path id="SVGID_9_" enable-background="new    " d="M414.9,113.5c1.2-4,2.3-7.9,3.5-11.8c-0.6,2.1-0.2,4.4,1.3,6.4
						c1.5,2.2,6.2,8.8,44.2,17.3c18.9,4.3,52.1,10.3,103,14.8c45.2,4,109,7.2,191.1,5.5c54.1-1.1,116.1-4.4,185.9-10.9
						c39.1-3.7,75-5.9,106.2-6.5c18.3-0.4,35-0.2,49.8,0.5c40.7,1.9,53.9,7.6,56,10l-3.5,11.8c-2.1-2.4-15.3-8-56-10
						c-14.8-0.7-31.4-0.9-49.8-0.5c-31.2,0.6-67,2.8-106.2,6.5c-69.8,6.6-131.8,9.8-185.8,10.9c-82,1.7-145.9-1.5-191.1-5.5
						c-51-4.5-84.2-10.5-103-14.8c-38-8.6-42.7-15.2-44.2-17.3C414.7,117.9,414.2,115.6,414.9,113.5z"/>
				</defs>
				<clipPath id="SVGID_8_">
					<use xlink:href="#SVGID_9_"  overflow="visible"/>
				</clipPath>
				<g clip-path="url(#SVGID_8_)">
					<path fill="#824B61" d="M1155.8,135.7l-3.5,11.8c-2.1-2.4-15.3-8-56-10c-14.8-0.7-31.4-0.9-49.8-0.5
						c-31.2,0.6-67,2.8-106.2,6.5c-69.8,6.6-131.8,9.8-185.8,10.9c-82,1.7-145.9-1.5-191.1-5.5c-51-4.5-84.2-10.5-103-14.8
						c-38-8.6-42.7-15.2-44.2-17.3c-1.4-2.1-1.9-4.4-1.3-6.4l3.5-11.8c-0.6,2.1-0.2,4.4,1.3,6.4c1.5,2.2,6.2,8.8,44.2,17.3
						c18.9,4.3,52.1,10.3,103,14.8c45.2,4,109,7.2,191.1,5.5c54.1-1.1,116.1-4.4,185.9-10.9c39.1-3.7,75-5.9,106.2-6.5
						c18.3-0.4,35-0.2,49.8,0.5C1140.4,127.7,1153.6,133.3,1155.8,135.7"/>
				</g>
			</g>
			<g enable-background="new    ">
				<defs>
					<path id="SVGID_11_" enable-background="new    " d="M1166.7,141.8c-1.2,3.9-2.3,7.9-3.5,11.8c-0.3,0.9-0.7,1.8-1.2,2.6
						c-6.3,10.1-34.4,19.3-83.5,27.5c-54.3,9-129.1,15.6-216.2,18.9c-18.6,0.7-38.8,1.3-60.7,1.8c-166.9,3.4-430.7-2.2-810.1-39.9
						l3.5-11.8c379.5,37.7,643.2,43.4,810.1,39.9c21.9-0.5,42.1-1.1,60.7-1.8c87.2-3.3,161.9-9.9,216.2-18.9
						c49.1-8.2,77.2-17.4,83.5-27.5C1166.1,143.6,1166.5,142.7,1166.7,141.8z"/>
				</defs>
				<clipPath id="SVGID_10_">
					<use xlink:href="#SVGID_11_"  overflow="visible"/>
				</clipPath>
				<g clip-path="url(#SVGID_10_)">
					<path fill="#91465F" d="M1166.7,141.8l-3.5,11.8c-0.3,0.9-0.7,1.8-1.2,2.6c-1,1.6-2.5,3.1-4.5,4.7l3.5-11.8
						c2-1.5,3.6-3.1,4.5-4.7C1166.1,143.6,1166.5,142.7,1166.7,141.8"/>
					<path fill="#824B61" d="M1161,149.1l-3.5,11.8c-11,8.3-37.5,15.9-79,22.8c-54.3,9-129.1,15.6-216.2,18.9
						c-18.6,0.7-38.8,1.3-60.7,1.8c-166.9,3.4-430.7-2.2-810.1-39.9l3.5-11.8c379.5,37.7,643.2,43.4,810.1,39.9
						c21.9-0.5,42.1-1.1,60.7-1.8c87.2-3.3,161.9-9.9,216.2-18.9C1123.5,165,1149.9,157.4,1161,149.1"/>
				</g>
			</g>
			<path fill="#C5718E" d="M1165.2,133.6c-3.3-4.6-10.4-7.9-22.6-10.5c-11.1-2.3-25.9-3.9-44.1-4.8c-14.7-0.7-31.2-0.8-49.3-0.4
				c-31.5,0.6-67.7,2.9-107.1,6.6c-69.5,6.5-131.2,9.8-185,10.9c-80.8,1.7-143.7-1.5-188.3-5.4c-50.3-4.4-83.1-10.3-101.7-14.4
				c-20.6-4.6-30.3-8.4-34.7-10.7c2.7-0.5,6.7-0.9,12.6-1c10.7-0.2,27.3,0.5,52.2,3.4c44.3,5.2,93,6.2,136.6,5.3
				c38.1-0.8,72.4-3,96.3-4.9c33-2.6,65-6.1,90-9.9c38.5-5.8,40.5-8.9,41.9-11c1.2-1.9,1.2-4.2-0.1-6.1c-2-3-5.4-4.2-21-4.3
				c-2.2,0-4.6,0-7.2,0.1c-10.4,0.2-24,0.9-40.4,1.9c-9.8,0.6-19.2,1-28.4,1.2c-84.3,1.7-143.9-14.4-180.2-29.2
				c-43.5-17.7-63.9-37.1-64.1-37.3L513,5.7c0.9,0.8,23.6,31.9,69,50.5c26.5,10.8,53.9,22.6,85.4,27.7c30.8,5,63.6,7.1,98.1,6.4
				c9.6-0.2,19.3-0.6,29.2-1.3c8.1-0.5,15-0.9,21.1-1.2c-22.4,3.3-53.9,7-92.3,9.9c-22.6,1.7-54.6,3.7-90.4,4.4
				c-43,0.9-91.3,0-135-5.2c-25-3-41.9-3.8-53.4-3.6c-21.5,0.4-24.3,4.7-25.5,6.6c-1.6,2.5-1.4,5.5,0.4,8.2
				c1.5,2.2,6.2,8.8,44.2,17.3c18.9,4.3,52.1,10.3,103,14.8c45.2,4,109,7.2,191.1,5.5c54.1-1.1,116.1-4.4,185.9-10.9
				c39.1-3.7,75-5.9,106.2-6.5c18.3-0.4,35-0.2,49.8,0.5c40.7,1.9,53.9,7.6,56,10c-0.6,0.9-3.4,4.2-16.6,8.9
				c-12.5,4.4-30.5,6.4-53,10.4c-36.5,6.4-97.8,6.9-207.2,11.4c-7,0.3-14.3,0.5-21.8,0.7c-165.7,3.4-462.4-24.8-878-66.1L-5,152.7
				c379.5,37.7,643.2,43.4,810.1,39.9c21.9-0.5,42.1-1.1,60.7-1.8c87.2-3.3,161.9-9.9,216.2-18.9c49.1-8.2,77.2-17.4,83.5-27.5
				C1167.7,140.9,1167.6,136.9,1165.2,133.6z"/>
		</g>
	</g>
	<g clip-path="url(#SVGID_2_)">
		<path fill="#FFFFFF" d="M512.9,5.8c0,0,0.2,0.2,0.5,0.6c0.3,0.4,0.8,1,1.4,1.6c0.3,0.3,0.6,0.7,0.9,1.1c0.3,0.4,0.7,0.8,1.1,1.2
			c0.8,0.8,1.6,1.6,2.4,2.5c0.4,0.4,0.8,0.9,1.3,1.2c0.4,0.4,0.9,0.8,1.3,1.1c0.8,0.7,1.6,1.4,2.2,2c1.3,1.2,2.2,2,2.2,2l0,0
			c0,0-0.9-0.8-2.2-2c-0.7-0.6-1.4-1.3-2.2-2c-0.4-0.4-0.8-0.8-1.3-1.1c-0.4-0.4-0.8-0.8-1.2-1.2c-0.8-0.8-1.6-1.7-2.4-2.5
			c-0.4-0.4-0.8-0.8-1.1-1.2c-0.3-0.4-0.6-0.7-0.9-1.1c-0.6-0.7-1.1-1.2-1.4-1.6C513.1,6.1,512.9,5.8,512.9,5.8z"/>
		<path fill="#FFFFFF" d="M536.1,26.9c0,0,1.9,1.3,4.9,3.4c0.7,0.5,1.5,1.1,2.4,1.6c0.9,0.5,1.8,1.1,2.7,1.7
			c0.9,0.6,1.9,1.2,2.9,1.8c0.5,0.3,1,0.6,1.5,0.9c0.5,0.3,1,0.6,1.5,0.9c2.1,1.2,4.1,2.3,6,3.4c1,0.6,1.9,1,2.8,1.5
			c0.9,0.5,1.8,0.9,2.5,1.3c3.2,1.6,5.3,2.7,5.3,2.7l0,0.1c0,0-2.1-1.1-5.3-2.7c-0.8-0.4-1.6-0.8-2.5-1.3c-0.9-0.5-1.9-0.9-2.8-1.5
			c-1.9-1.1-4-2.3-6-3.4c-0.5-0.3-1-0.6-1.5-0.9c-0.5-0.3-1-0.6-1.5-0.9c-1-0.6-2-1.2-2.9-1.8c-0.9-0.6-1.8-1.2-2.7-1.7
			c-0.9-0.5-1.6-1.1-2.4-1.6C538,28.3,536.1,27,536.1,26.9L536.1,26.9z"/>
		<path fill="#FFFFFF" d="M580.2,51.4c0,0,2.2,0.9,5.5,2.3c0.8,0.3,1.7,0.7,2.6,1.1c0.9,0.4,2,0.7,3,1.1c1,0.4,2.1,0.8,3.2,1.2
			c1.1,0.4,2.2,0.9,3.3,1.2c2.2,0.8,4.5,1.5,6.6,2.3c1,0.4,2.1,0.7,3,1c1,0.3,1.9,0.6,2.7,0.9c3.4,1.1,5.6,1.8,5.6,1.8l0,0.1
			c0,0-2.3-0.7-5.6-1.8c-0.8-0.3-1.8-0.6-2.7-0.9c-1-0.3-2-0.6-3-1c-2.1-0.7-4.3-1.5-6.6-2.3c-1.1-0.4-2.2-0.8-3.3-1.2
			c-1.1-0.4-2.2-0.8-3.2-1.2c-1-0.4-2-0.8-3-1.1c-0.9-0.4-1.8-0.8-2.6-1.1C582.3,52.3,580.1,51.4,580.2,51.4L580.2,51.4z"/>
		<path fill="#FFFFFF" d="M627.9,67.7c0,0,2.3,0.6,5.8,1.4c1.7,0.4,3.7,0.9,5.9,1.4c1.1,0.3,2.2,0.5,3.3,0.8
			c1.1,0.3,2.3,0.6,3.4,0.8c9.3,1.8,18.6,3.7,18.6,3.7l0,0.1c0,0-9.3-1.8-18.6-3.7c-1.2-0.2-2.3-0.5-3.4-0.8
			c-1.1-0.3-2.2-0.5-3.3-0.8c-2.2-0.5-4.2-1-5.9-1.4c-3.4-0.8-5.7-1.4-5.7-1.4L627.9,67.7z"/>
		<path fill="#FFFFFF" d="M677.3,77.7c0,0,2.3,0.3,5.9,0.8c1.8,0.2,3.8,0.5,6,0.8c1.1,0.1,2.2,0.3,3.4,0.4c1.2,0.1,2.3,0.3,3.5,0.4
			c9.4,0.9,18.8,1.9,18.8,1.9l0,0.2c0,0-9.4-0.9-18.8-1.9c-1.2-0.1-2.3-0.3-3.5-0.4c-1.2-0.2-2.3-0.3-3.4-0.5
			c-2.2-0.3-4.3-0.6-6-0.8c-3.5-0.5-5.9-0.8-5.9-0.8L677.3,77.7z"/>
		<path fill="#FFFFFF" d="M727.5,83c0,0,2.4,0.1,5.9,0.3c1.8,0.1,3.8,0.2,6.1,0.3c1.1,0.1,2.3,0.1,3.4,0.2c1.2,0,2.3,0.1,3.5,0.2
			c9.5,0.2,18.9,0.4,18.9,0.4l0,0.2c0,0-9.5-0.2-18.9-0.4c-1.2,0-2.4-0.1-3.5-0.2c-1.2-0.1-2.3-0.1-3.4-0.2
			c-2.2-0.1-4.3-0.2-6.1-0.3c-3.5-0.2-5.9-0.3-5.9-0.3L727.5,83z"/>
		<path fill="#FFFFFF" d="M778,84.3c0,0,9.5-0.2,18.9-0.4c9.5-0.4,18.9-0.8,18.9-0.8l0,0.3c0,0-9.5,0.4-18.9,0.7
			c-9.5,0.2-18.9,0.3-18.9,0.3L778,84.3z"/>
		<path fill="#FFFFFF" d="M828.4,82.5l0.2,0h0h0c1.6,0.1,3.1,0.3,4.7,0.5c1.6,0.2,3.1,0.5,4.6,0.9c0.8,0.2,1.5,0.4,2.2,0.9
			c0.2,0.1,0.3,0.3,0.4,0.5c0.1,0.2,0.1,0.5,0,0.7c-0.2,0.4-0.6,0.6-0.9,0.8c-0.7,0.4-1.4,0.7-2.2,1c-0.7,0.3-1.5,0.5-2.3,0.7
			c-3,0.8-6.1,1.4-9.2,2c-3.1,0.6-6.2,1.1-9.3,1.6l0-0.3c3.1-0.5,6.2-1,9.3-1.5c3.1-0.6,6.2-1.2,9.2-2c0.8-0.2,1.5-0.4,2.2-0.7
			c0.7-0.3,1.5-0.5,2.1-0.9c0.3-0.2,0.6-0.4,0.8-0.7c0.2-0.3,0-0.6-0.3-0.8c-0.6-0.4-1.4-0.7-2.1-0.9c-1.5-0.4-3-0.6-4.6-0.9
			c-1.5-0.2-3.1-0.4-4.7-0.5h0l-0.2,0L828.4,82.5z"/>
		<polygon fill="#FFFFFF" points="804.3,93.7 766.7,98.1 766.6,97.7 804.3,93.4 		"/>
		<path fill="#FFFFFF" d="M754.1,99.3c0,0-2.4,0.2-5.9,0.6c-3.5,0.3-8.3,0.7-13,1.1c-9.4,0.8-18.9,1.6-18.9,1.6l0-0.4
			c0,0,9.4-0.8,18.9-1.6c4.7-0.4,9.4-0.8,13-1.1c3.5-0.3,5.9-0.6,5.9-0.6L754.1,99.3z"/>
		<polygon fill="#FFFFFF" points="703.8,103.5 666,105.6 666,105.3 703.8,103.2 		"/>
		<polygon fill="#FFFFFF" points="653.4,106.2 615.5,107.2 615.5,106.8 653.4,105.8 		"/>
		<polygon fill="#FFFFFF" points="602.9,107.3 565,107.2 565,106.8 602.9,106.9 		"/>
		<polygon fill="#FFFFFF" points="552.4,107 514.6,105.7 514.6,105.2 552.4,106.6 		"/>
		<path fill="#FFFFFF" d="M502,104.9c0,0-2.4-0.2-5.9-0.4c-1.8-0.1-3.8-0.3-6-0.4c-2.2-0.2-4.6-0.4-6.9-0.6
			c-1.2-0.1-2.4-0.2-3.5-0.3c-1.2-0.1-2.3-0.3-3.4-0.4c-1.1-0.1-2.2-0.3-3.2-0.4c-1-0.1-2-0.2-2.8-0.4c-3.5-0.5-5.9-0.9-5.9-0.9
			l0.1-0.4c0,0,2.3,0.4,5.8,0.9c0.9,0.1,1.8,0.2,2.8,0.4c1,0.1,2.1,0.2,3.2,0.4c1.1,0.1,2.2,0.3,3.4,0.4c1.2,0.1,2.3,0.2,3.5,0.3
			c2.4,0.2,4.7,0.4,6.9,0.6c2.2,0.2,4.3,0.3,6,0.4c3.5,0.3,5.9,0.4,5.9,0.4L502,104.9z"/>
		<path fill="#FFFFFF" d="M451.9,98.7c0,0-0.6,0-1.6-0.1c-1-0.1-2.5-0.1-4.3-0.1c-1.8,0-3.8,0.1-6,0.4c-2.2,0.3-4.5,0.6-6.8,1.3
			c-1.1,0.3-2.2,0.8-3.2,1.4c-0.5,0.3-0.9,0.6-1.2,1.1c-0.3,0.4-0.5,0.9-0.4,1.4c0.2,1,1,1.8,1.8,2.4c0.8,0.6,1.6,1.1,2.4,1.6
			c1.5,0.9,2.9,1.4,3.8,1.8c1,0.4,1.5,0.6,1.5,0.6l-0.2,0.4c0,0-0.6-0.2-1.5-0.6c-1-0.4-2.3-1-3.9-1.9c-0.8-0.4-1.6-0.9-2.4-1.6
			c-0.4-0.3-0.8-0.7-1.2-1.1c-0.3-0.4-0.7-0.9-0.8-1.6c-0.1-0.6,0.1-1.3,0.5-1.8c0.4-0.5,0.9-0.9,1.4-1.2c1-0.6,2.2-1.1,3.3-1.4
			c2.3-0.7,4.6-1.1,6.9-1.3c2.2-0.3,4.3-0.4,6.1-0.4c1.8,0,3.3,0,4.3,0.1c1,0.1,1.6,0.1,1.6,0.1L451.9,98.7z"/>
		<path fill="#FFFFFF" d="M449.9,114.4c0,0,2.3,0.6,5.7,1.5c0.9,0.2,1.8,0.5,2.8,0.7c1,0.2,2,0.5,3.1,0.7c1.1,0.3,2.2,0.5,3.3,0.8
			c1.1,0.3,2.3,0.5,3.4,0.7c2.3,0.5,4.6,1,6.8,1.4c1.1,0.2,2.1,0.4,3.1,0.6c1,0.2,1.9,0.4,2.8,0.5c3.5,0.7,5.8,1.1,5.8,1.1l-0.1,0.5
			c0,0-2.3-0.4-5.8-1.1c-0.9-0.2-1.8-0.3-2.8-0.5c-1-0.2-2.1-0.4-3.1-0.6c-2.2-0.5-4.5-0.9-6.8-1.4c-1.2-0.3-2.3-0.5-3.5-0.7
			c-1.1-0.3-2.3-0.5-3.3-0.8c-1.1-0.3-2.1-0.5-3.1-0.7c-1-0.2-1.9-0.5-2.8-0.7c-3.4-0.9-5.7-1.5-5.7-1.5L449.9,114.4z"/>
		<polygon fill="#FFFFFF" points="499.3,124.7 536.7,130.4 536.6,130.9 499.2,125.2 		"/>
		<path fill="#FFFFFF" d="M549.2,132.1c0,0,0.6,0.1,1.6,0.2c1,0.1,2.5,0.3,4.2,0.5c3.5,0.4,8.2,1,12.9,1.5
			c9.4,0.9,18.8,1.8,18.8,1.8l0,0.5c0,0-9.4-0.9-18.8-1.8c-4.7-0.6-9.4-1.1-12.9-1.5c-1.8-0.2-3.2-0.4-4.3-0.5
			c-1-0.1-1.6-0.2-1.6-0.2L549.2,132.1z"/>
		<path fill="#FFFFFF" d="M599.3,137.2c0,0,9.4,0.6,18.9,1.2c9.4,0.4,18.9,0.9,18.9,0.9l0,0.5c0,0-9.4-0.4-18.9-0.9
			c-9.4-0.6-18.9-1.2-18.9-1.2L599.3,137.2z"/>
		<polygon fill="#FFFFFF" points="649.6,139.7 687.4,140.4 687.4,140.9 649.6,140.2 		"/>
		<polygon fill="#FFFFFF" points="700,140.4 737.9,140.1 737.9,140.6 700.1,140.9 		"/>
		<polygon fill="#FFFFFF" points="750.5,139.8 788.4,138.7 788.4,139.3 750.5,140.4 		"/>
		<polygon fill="#FFFFFF" points="801,138.2 838.8,136.5 838.8,137 801,138.8 		"/>
		<polygon fill="#FFFFFF" points="851.4,135.8 889.2,133.5 889.2,134.1 851.4,136.4 		"/>
		<polygon fill="#FFFFFF" points="901.8,132.7 939.5,130 939.6,130.6 901.8,133.3 		"/>
		<polygon fill="#FFFFFF" points="952.1,129.1 989.9,126.2 989.9,126.8 952.2,129.7 		"/>
		<polygon fill="#FFFFFF" points="1002.5,125.2 1040.2,122.6 1040.3,123.2 1002.5,125.8 		"/>
		<path fill="#FFFFFF" d="M1052.7,123.3c0,0,0.1,0.1,0.4,0.1c0.3,0.1,0.6,0.2,1.1,0.3c0.5,0.1,1.1,0.2,1.8,0.3
			c0.7,0.1,1.5,0.1,2.4,0.2c3.5,0.2,8.3,0.2,13,0.2c9.5,0,18.9,0,18.9,0l0,0.6c0,0-9.5,0-18.9,0c-4.7,0-9.5,0-13-0.2
			c-0.9,0-1.7-0.1-2.4-0.2c-0.7-0.1-1.3-0.2-1.9-0.3c-0.5-0.1-1-0.2-1.2-0.3c-0.3-0.1-0.4-0.1-0.4-0.1L1052.7,123.3z"/>
		<path fill="#FFFFFF" d="M1102.9,124.5c0,0,0.6,0,1.6,0c1,0,2.5,0.1,4.3,0.1c1.8,0.1,3.8,0.1,6.1,0.3c1.1,0.1,2.3,0.1,3.4,0.2
			c1.2,0.1,2.3,0.2,3.5,0.2c1.2,0.1,2.4,0.2,3.5,0.3c1.2,0.1,2.3,0.2,3.4,0.3c1.1,0.1,2.2,0.2,3.2,0.4c1,0.1,2,0.3,2.8,0.4
			c0.9,0.1,1.7,0.2,2.4,0.4c0.7,0.1,1.3,0.2,1.8,0.3c1,0.2,1.6,0.3,1.6,0.3l-0.1,0.6c0,0-0.6-0.1-1.6-0.3c-0.5-0.1-1.1-0.2-1.8-0.3
			c-0.7-0.1-1.5-0.2-2.4-0.4c-0.9-0.1-1.8-0.3-2.8-0.4c-1-0.1-2.1-0.2-3.2-0.4c-1.1-0.1-2.2-0.2-3.4-0.3c-1.2-0.1-2.3-0.2-3.5-0.3
			c-1.2-0.1-2.4-0.2-3.5-0.2c-1.2-0.1-2.3-0.1-3.4-0.2c-2.2-0.1-4.3-0.2-6.1-0.3c-1.8-0.1-3.3-0.1-4.3-0.1c-1,0-1.6,0-1.6,0
			L1102.9,124.5z"/>
		<path fill="#FFFFFF" d="M1152.8,131.5c0,0,0.1,0.1,0.4,0.2c0.2,0.1,0.6,0.3,1.1,0.6c0.5,0.3,1,0.6,1.6,1c0.6,0.4,1.3,0.9,1.9,1.5
			c0.7,0.6,1.3,1.4,1.9,2.3c0.5,0.9,1,2,1.1,3.1c0.1,0.6,0.1,1.2,0,1.8c-0.1,0.6-0.3,1.2-0.6,1.7c-0.6,1.1-1.5,1.9-2.4,2.7
			c-1.9,1.5-4,2.7-6,3.6c-2,1-4,1.7-5.6,2.3c-1.7,0.6-3.1,1.1-4.1,1.4c-1,0.3-1.6,0.5-1.6,0.5l-0.2-0.6c0,0,0.6-0.2,1.5-0.5
			c1-0.3,2.4-0.8,4-1.4c1.7-0.6,3.6-1.4,5.6-2.3c2-1,4.1-2.1,5.9-3.6c0.9-0.7,1.7-1.6,2.3-2.5c0.3-0.5,0.5-1,0.6-1.5
			c0.1-0.5,0.1-1,0-1.6c-0.1-1.1-0.5-2-1-2.9c-0.5-0.8-1.1-1.6-1.8-2.2c-0.6-0.6-1.3-1.1-1.9-1.5c-0.6-0.4-1.1-0.7-1.6-1
			c-0.4-0.2-0.8-0.4-1.1-0.5c-0.2-0.1-0.4-0.2-0.4-0.2L1152.8,131.5z"/>
		<path fill="#FFFFFF" d="M1128.2,157.5c0,0-2.3,0.5-5.8,1.3c-0.9,0.2-1.8,0.4-2.8,0.6c-1,0.2-2.1,0.4-3.1,0.6
			c-1.1,0.2-2.2,0.4-3.4,0.7c-1.1,0.2-2.3,0.5-3.5,0.7c-2.3,0.4-4.7,0.8-6.9,1.2c-2.2,0.4-4.2,0.7-6,1c-3.5,0.6-5.8,0.9-5.8,0.9
			l-0.1-0.6c0,0,2.3-0.4,5.8-0.9c1.8-0.3,3.8-0.6,6-1c2.2-0.4,4.5-0.8,6.8-1.2c1.2-0.2,2.3-0.4,3.5-0.7c1.1-0.2,2.3-0.4,3.4-0.7
			c1.1-0.2,2.1-0.4,3.1-0.6c1-0.2,1.9-0.4,2.8-0.6c3.5-0.8,5.8-1.3,5.8-1.3L1128.2,157.5z"/>
		<polygon fill="#FFFFFF" points="1078.5,166.3 1040.9,171 1040.9,170.4 1078.4,165.8 		"/>
		<polygon fill="#FFFFFF" points="1028.4,172.3 990.7,175.8 990.6,175.3 1028.3,171.8 		"/>
		<polygon fill="#FFFFFF" points="978.1,176.9 940.3,179.7 940.3,179.1 978,176.3 		"/>
		<path fill="#FFFFFF" d="M927.7,180.5c0,0-2.4,0.1-5.9,0.4c-0.9,0.1-1.9,0.1-2.9,0.1c-1,0-2.1,0.1-3.2,0.1
			c-2.2,0.1-4.6,0.1-6.9,0.2c-9.5,0-18.9,0-18.9,0l0-0.5c0,0,9.5,0,18.9,0c2.4-0.1,4.7-0.1,6.9-0.2c1.1,0,2.2-0.1,3.2-0.1
			c1,0,2,0,2.9-0.1c3.5-0.2,5.9-0.4,5.9-0.4L927.7,180.5z"/>
		<polygon fill="#FFFFFF" points="877.2,181.1 839.4,180.3 839.4,179.8 877.3,180.6 		"/>
		<polygon fill="#FFFFFF" points="826.8,180 789,178.8 789,178.4 826.8,179.5 		"/>
		<polygon fill="#FFFFFF" points="776.4,178.4 738.6,177.1 738.6,176.7 776.4,178 		"/>
		<polygon fill="#FFFFFF" points="726,176.7 688.1,175.2 688.2,174.8 726,176.2 		"/>
		<polygon fill="#FFFFFF" points="675.5,174.7 637.7,173.1 637.7,172.7 675.6,174.3 		"/>
		<polygon fill="#FFFFFF" points="625.1,172.6 587.3,170.9 587.3,170.5 625.1,172.2 		"/>
		<polygon fill="#FFFFFF" points="574.7,170.2 536.9,168.3 536.9,167.9 574.7,169.8 		"/>
		<polygon fill="#FFFFFF" points="524.2,167.6 486.5,165.1 486.5,164.7 524.3,167.2 		"/>
		<polygon fill="#FFFFFF" points="473.9,164 436.2,160.9 436.2,160.5 473.9,163.6 		"/>
		<polygon fill="#FFFFFF" points="423.6,159.9 385.8,157.2 385.8,156.9 423.6,159.6 		"/>
		<polygon fill="#FFFFFF" points="373.2,156.3 335.5,153.7 335.5,153.4 373.3,156 		"/>
		<polygon fill="#FFFFFF" points="322.9,152.9 285.1,150.3 285.1,150 322.9,152.5 		"/>
		<polygon fill="#FFFFFF" points="272.5,149.5 234.8,147 234.8,146.7 272.6,149.2 		"/>
		<polygon fill="#FFFFFF" points="222.2,146.2 184.4,143.7 184.4,143.5 222.2,145.9 		"/>
		<polygon fill="#FFFFFF" points="171.8,142.9 134,140.4 134,140.2 171.8,142.7 		"/>
		<polygon fill="#FFFFFF" points="121.4,139.6 83.6,137.1 83.7,137 121.4,139.4 		"/>
		<polygon fill="#FFFFFF" points="71.1,136.3 33.3,133.9 33.3,133.8 71.1,136.2 		"/>
		<polygon fill="#FFFFFF" points="20.7,133.1 -17.1,130.7 -17.1,130.7 20.7,133.1 		"/>
	</g>
</g>
</svg>
