<?xml version="1.0" encoding="utf-8"?>
<!-- Generator: Adobe Illustrator 18.1.1, SVG Export Plug-In . SVG Version: 6.00 Build 0)  -->
<svg version="1.1" id="Layer_1" xmlns="http://www.w3.org/2000/svg" xmlns:xlink="http://www.w3.org/1999/xlink" x="0px" y="0px"
	 viewBox="0 0 90.7 44.6" enable-background="new 0 0 90.7 44.6" xml:space="preserve">
<g>
	<g>
		<g>
			<g>
				<g>
					<rect x="3" y="35.3" fill="#FFFFFF" width="0.9" height="7.2"/>
					<path fill="#FFFFFF" d="M10.5,37.6L10.5,37.6c-0.5,0-0.8,0.2-1.1,0.5c-0.3,0.3-0.4,1-0.4,2c0,0.8,0.1,1.4,0.4,1.8
						c0.3,0.4,0.6,0.6,1.2,0.6c0.4,0,0.8-0.2,1.1-0.5c0.3-0.3,0.4-1,0.4-1.9c0-1-0.1-1.7-0.4-2C11.3,37.8,11,37.6,10.5,37.6z
						 M11,41.5c-0.1,0.2-0.2,0.3-0.4,0.3c-0.2,0-0.4-0.1-0.4-0.3c-0.1-0.2-0.1-0.8-0.1-1.8c0-0.5,0-0.8,0.1-1
						c0.1-0.2,0.2-0.3,0.4-0.3c0.2,0,0.4,0.1,0.5,0.4c0.1,0.3,0.1,0.8,0.1,1.6C11.1,40.9,11,41.3,11,41.5z"/>
					<path fill="#FFFFFF" d="M21.2,38.3L21.2,38.3c-0.2-0.4-0.5-0.7-0.9-0.7c-0.3,0-0.5,0.1-0.7,0.3c-0.2,0.2-0.3,0.5-0.4,1
						c0,0.4-0.1,0.9-0.1,1.3c0,1,0.1,1.6,0.3,1.9c0.2,0.3,0.5,0.4,0.8,0.4c0.4,0,0.7-0.2,0.9-0.6h0v2.6h0.9v-6.8h-0.9V38.3z
						 M21.1,41.4c-0.1,0.2-0.2,0.4-0.4,0.4c-0.2,0-0.4-0.1-0.5-0.4c-0.1-0.3-0.1-0.8-0.1-1.4c0-0.5,0-0.9,0.1-1.1
						c0.1-0.2,0.2-0.4,0.4-0.4h0c0.2,0,0.4,0.1,0.5,0.4c0.1,0.3,0.1,0.8,0.1,1.4C21.2,40.8,21.2,41.2,21.1,41.4z"/>
					<path fill="#FFFFFF" d="M29.3,40.9c0,0.3,0,0.5-0.1,0.7c-0.1,0.1-0.2,0.2-0.4,0.2c-0.4,0-0.6-0.3-0.6-0.8v-3.3h-0.9V41
						c0,0.5,0.1,0.9,0.3,1.2c0.2,0.2,0.6,0.4,1.1,0.4c0.5,0,0.9-0.1,1.1-0.4c0.2-0.2,0.3-0.6,0.3-1.2v-3.3h-0.9V40.9z"/>
					<path fill="#FFFFFF" d="M36.9,37.7c-1,0-1.5,0.8-1.5,2.5c0,1.6,0.5,2.3,1.5,2.3c0.9,0,1.4-0.6,1.4-1.7h-0.8
						c0,0.3,0,0.6-0.1,0.7c-0.1,0.2-0.2,0.2-0.4,0.2c-0.3,0-0.4-0.1-0.5-0.4c-0.1-0.3-0.1-0.7-0.1-1.2h2v-0.3c0-0.9-0.1-1.5-0.4-1.8
						C37.7,37.8,37.3,37.7,36.9,37.7z M36.3,39.6c0-0.4,0-0.8,0.1-1c0.1-0.2,0.2-0.3,0.5-0.3c0.2,0,0.3,0.1,0.4,0.3
						c0.1,0.2,0.1,0.5,0.1,1H36.3z"/>
					<path fill="#FFFFFF" d="M47.6,38.3L47.6,38.3c-0.2-0.4-0.5-0.6-0.9-0.6c-0.3,0-0.5,0.1-0.7,0.3c-0.2,0.2-0.3,0.4-0.4,0.7
						c-0.1,0.3-0.1,0.9-0.1,1.6c0,0.7,0,1.1,0.1,1.4c0.1,0.3,0.2,0.5,0.4,0.7c0.2,0.2,0.4,0.2,0.6,0.2c0.4,0,0.7-0.2,0.9-0.7h0v0.6
						h0.9v-7.2h-0.9V38.3z M47.5,41.4c-0.1,0.3-0.2,0.4-0.5,0.4c-0.2,0-0.4-0.1-0.4-0.4c-0.1-0.3-0.1-0.7-0.1-1.3c0-0.6,0-1,0.1-1.3
						c0.1-0.3,0.2-0.4,0.5-0.4c0.2,0,0.4,0.1,0.4,0.4c0.1,0.2,0.1,0.7,0.1,1.2C47.6,40.6,47.6,41.1,47.5,41.4z"/>
					<path fill="#FFFFFF" d="M55.2,37.7c-1,0-1.5,0.8-1.5,2.5c0,1.6,0.5,2.3,1.5,2.3c0.9,0,1.4-0.6,1.4-1.7h-0.8
						c0,0.3,0,0.6-0.1,0.7c-0.1,0.2-0.2,0.2-0.4,0.2c-0.3,0-0.4-0.1-0.5-0.4c-0.1-0.3-0.1-0.7-0.1-1.2h2v-0.3c0-0.9-0.1-1.5-0.4-1.8
						C55.9,37.8,55.6,37.7,55.2,37.7z M54.6,39.6c0-0.4,0-0.8,0.1-1c0.1-0.2,0.2-0.3,0.5-0.3c0.2,0,0.3,0.1,0.4,0.3
						c0.1,0.2,0.1,0.5,0.1,1H54.6z"/>
					<path fill="#FFFFFF" d="M63.5,39.9c-0.3-0.3-0.5-0.5-0.6-0.6c-0.1-0.1-0.1-0.3-0.1-0.4c0-0.2,0.1-0.3,0.2-0.4
						c0.1-0.1,0.3-0.1,0.5-0.1c0.2,0,0.4,0.1,0.7,0.2v-0.7c-0.3-0.1-0.6-0.2-0.9-0.2c-0.4,0-0.7,0.1-0.9,0.4
						c-0.2,0.2-0.4,0.6-0.4,0.9c0,0.5,0.2,0.9,0.7,1.3c0.3,0.3,0.5,0.5,0.7,0.6c0.1,0.2,0.2,0.3,0.2,0.5c0,0.2,0,0.3-0.1,0.4
						c-0.1,0.1-0.2,0.1-0.4,0.1c-0.2,0-0.5-0.1-0.8-0.2v0.7c0.3,0.1,0.6,0.2,0.9,0.2c0.4,0,0.7-0.1,1-0.4c0.3-0.2,0.4-0.6,0.4-0.9
						c0-0.2-0.1-0.5-0.2-0.7C64,40.3,63.8,40.1,63.5,39.9z"/>
					<path fill="#FFFFFF" d="M70.9,37.7c-1,0-1.5,0.8-1.5,2.5c0,1.6,0.5,2.3,1.5,2.3c0.9,0,1.4-0.6,1.4-1.7h-0.8
						c0,0.3,0,0.6-0.1,0.7c-0.1,0.2-0.2,0.2-0.4,0.2c-0.3,0-0.4-0.1-0.5-0.4c-0.1-0.3-0.1-0.7-0.1-1.2h2v-0.3c0-0.9-0.1-1.5-0.4-1.8
						C71.6,37.8,71.2,37.7,70.9,37.7z M70.3,39.6c0-0.4,0-0.8,0.1-1c0.1-0.2,0.2-0.3,0.5-0.3c0.2,0,0.3,0.1,0.4,0.3
						c0.1,0.2,0.1,0.5,0.1,1H70.3z"/>
					<path fill="#FFFFFF" d="M79.5,38.2L79.5,38.2c-0.2-0.2-0.3-0.4-0.4-0.5c-0.1-0.1-0.3-0.1-0.5-0.1c-0.4,0-0.7,0.2-0.9,0.6
						c-0.2,0.4-0.3,1-0.3,1.9c0,1,0.1,1.6,0.4,1.9c0.2,0.3,0.5,0.4,0.8,0.4c0.4,0,0.7-0.2,0.9-0.6h0v0.6h0.9v-4.7h-0.9V38.2z
						 M79.3,41.3c-0.1,0.3-0.2,0.4-0.5,0.4c-0.2,0-0.4-0.1-0.4-0.4c-0.1-0.3-0.1-0.8-0.1-1.4c0-0.6,0-1,0.1-1.2
						c0.1-0.2,0.2-0.3,0.5-0.3c0.2,0,0.4,0.1,0.4,0.3c0.1,0.2,0.1,0.6,0.1,1.2C79.5,40.6,79.4,41.1,79.3,41.3z"/>
					<path fill="#FFFFFF" d="M87.9,40.5c-0.1-0.2-0.3-0.4-0.6-0.7c-0.3-0.3-0.5-0.5-0.6-0.6c-0.1-0.1-0.1-0.3-0.1-0.4
						c0-0.2,0.1-0.3,0.2-0.4c0.1-0.1,0.3-0.1,0.5-0.1c0.2,0,0.4,0.1,0.7,0.2v-0.7c-0.3-0.1-0.6-0.2-0.9-0.2c-0.4,0-0.7,0.1-0.9,0.4
						c-0.2,0.2-0.4,0.6-0.4,0.9c0,0.5,0.2,0.9,0.7,1.3c0.3,0.3,0.5,0.5,0.7,0.6c0.1,0.2,0.2,0.3,0.2,0.5c0,0.2,0,0.3-0.1,0.4
						c-0.1,0.1-0.2,0.1-0.4,0.1c-0.2,0-0.5-0.1-0.8-0.2v0.7c0.3,0.1,0.6,0.2,0.9,0.2c0.4,0,0.7-0.1,1-0.4c0.3-0.2,0.4-0.6,0.4-0.9
						C88.1,41,88,40.8,87.9,40.5z"/>
				</g>
				<circle fill="#FFFFFF" cx="40.7" cy="15.5" r="2.8"/>
				<g>
					<g>
						<path fill="#FFFFFF" d="M67.7,16.6L79,28c0.3,0.3,0.6,0.4,0.9,0.5c-0.4-0.6-0.6-1.2-0.6-2V13.9L68,2.5C67.7,2.3,67.4,2.1,67,2
							c0.4,0.6,0.6,1.2,0.6,2V16.6z"/>
					</g>
				</g>
				<path fill="#FFFFFF" d="M80.1,4v9.6v13c0,1.2,0.8,2.2,1.9,2.5c0.2,0.1,0.5,0.1,0.8,0.1h5.1c1.4,0,2.6-1.2,2.6-2.6V4
					c0-1.4-1.2-2.6-2.6-2.6h-5.1C81.3,1.3,80.1,2.5,80.1,4z"/>
				<path fill="#FFFFFF" d="M56.5,4v22.6c0,1.4,1.2,2.6,2.6,2.6h5.1c1.4,0,2.6-1.2,2.6-2.6V17V4c0-1.2-0.8-2.2-1.9-2.5
					c-0.2-0.1-0.5-0.1-0.8-0.1h-5.1C57.7,1.3,56.5,2.5,56.5,4z"/>
				<path fill="#FFFFFF" d="M45.2,0.8h-2.3h-6.7c-5.1,0-9.4,3.8-10,8.8c-0.1,0.4-0.1,0.9-0.1,1.3v9c0,5.6,4.5,10.1,10.1,10.1h9
					c5.6,0,10.1-4.5,10.1-10.1v-9C55.4,5.4,50.8,0.8,45.2,0.8z M47.3,15.9c0,3.3-2.7,6.1-6.1,6.1h-1c-3.4,0-6.1-2.7-6.1-6.1v-1
					c0-3.3,2.7-6.1,6.1-6.1h1c3.4,0,6.1,2.7,6.1,6.1V15.9z"/>
				<path fill="#FFFFFF" d="M22.5,21.1h-8.4H2.8c-1,0-1.9,0.7-2.2,1.6c-0.1,0.2-0.1,0.4-0.1,0.7v4.5c0,1.3,1,2.3,2.3,2.3h19.7
					c1.3,0,2.3-1,2.3-2.3v-4.5C24.8,22.1,23.8,21.1,22.5,21.1z"/>
				<path fill="#FFFFFF" d="M13.9,20.3l9.9-9.9c0.2-0.2,0.4-0.5,0.5-0.8c-0.5,0.3-1.1,0.5-1.7,0.5H11.5l-9.9,9.9
					c-0.2,0.2-0.4,0.5-0.5,0.8c0.5-0.3,1.1-0.5,1.7-0.5H13.9z"/>
				<path fill="#FFFFFF" d="M22.5,0.4h-3.4H2.8c-1.3,0-2.3,1-2.3,2.3v4.5c0,1.3,1,2.3,2.3,2.3h8.4h9h2.4c1,0,1.9-0.7,2.2-1.6
					c0.1-0.2,0.1-0.4,0.1-0.7V2.7C24.8,1.5,23.8,0.4,22.5,0.4z"/>
				<path fill="#FFFFFF" d="M25.8,7.3c0.9-2.5,2.6-4.6,4.8-5.9h-5.1c0.2,0.4,0.3,0.9,0.3,1.3L25.8,7.3C25.8,7.2,25.8,7.2,25.8,7.3z"
					/>
			</g>
		</g>
	</g>
</g>
</svg>
